<svg xmlns="http://www.w3.org/2000/svg" width="38" height="43" fill="none"><path fill-rule="evenodd" clip-rule="evenodd" d="M6.339 34.754a.51.51 0 0 0-.011.085v.005a.583.583 0 0 0 .004.096c.007.055.03.12.065.19a.572.572 0 0 0-.187-.06.545.545 0 0 0-.175.015l-.006.001a.506.506 0 0 0 .007-.185v-.002a.612.612 0 0 0-.067-.19.576.576 0 0 0 .189.061h.01a.543.543 0 0 0 .084-.001v.001a.465.465 0 0 0 .087-.016Zm6.265-22s-.163 3.386-2.013 6.774c.11-3.801-.52-7.647-3.043-10.497 0 0 1.883 9.054-.384 14.608-.367.9-.695 1.692-.987 2.386-.554.595-1.108 1.195-1.661 1.799a3.552 3.552 0 0 0-.929-1.223c-.21 2.368-3.166 5.392-3.211 8.573-.026 1.802 2.51 4.753 4.596 4.721.522-.008 1.684-.409 2.845-.965v-2.567c-.138.025-.275.048-.41.068-.303-.415-.99-1.044-1.22-1.064a.22.22 0 0 0-.085.008c-.185.059-.798.718-.847.91a.238.238 0 0 0-.004.087c.008.06.055.148.128.251l-.331.009a.668.668 0 0 1-.084-.221.581.581 0 0 1-.004-.097v-.001a.504.504 0 0 1 .011-.089.438.438 0 0 1-.087.016.547.547 0 0 1-.084 0h-.01c-.088-.008-.206-.062-.34-.145a1.772 1.772 0 0 1-.09-.426c.19.156.36.266.454.274a.223.223 0 0 0 .085-.008c.184-.059.797-.718.846-.91a.241.241 0 0 0 .004-.087c-.034-.262-.817-1.061-1.216-1.283l.05-.3.013.006-.01-.02c.05-.293.101-.596.15-.905.246-.226.554-.587.589-.72a.24.24 0 0 0 .003-.088c-.015-.12-.19-.356-.414-.596.01-.13.02-.262.027-.392.307.307.658.585.81.598a.221.221 0 0 0 .085-.007c.185-.06.798-.719.847-.91a.24.24 0 0 0 .003-.088c-.038-.301-1.07-1.314-1.366-1.34a.22.22 0 0 0-.084.008c-.07.022-.203.132-.342.27a5.598 5.598 0 0 0-.058-.346c.072-.062.14-.115.201-.153h.001l.001-.001h.002v-.002h.002l.002-.002h.002l.001-.002h.003v-.002h.002l.002-.001v-.001h.002l.001-.001.001-.001h.001l.001-.001h.001l.001-.002h.002l.002-.001v-.001h.002v-.001h.002v-.001l.002-.001h.001l.001-.001h.001l.001-.001h.001l.001-.001.001-.001h.001l.001-.001h.001l.001-.001h.001l.001-.001h.001l.001-.001h.001l.001-.001h.001l.001-.001.001-.001h.002v-.001h.001l.001-.001h.001l.001-.001H5.1l.001-.001h.002l.001-.001a.462.462 0 0 1 .146-.039.543.543 0 0 1 .094 0h.01l.003.001h.005l.003.001h.002l.003.001h.003l.002.001h.003l.003.001h.002l.003.001h.003l.003.002h.005l.003.002h.003l.003.001h.002l.003.002h.003l.003.001.003.001.003.001h.003l.003.002h.003l.003.002h.003l.003.002h.003l.003.002.003.001.003.001.003.001.003.001.003.002h.003l.003.002.003.001.004.002h.003l.003.002.003.001.003.002.004.001.003.001.003.002.003.001.003.002.004.001.003.002.003.001.004.002.003.001.003.002.004.001.003.002.003.002-.001-.004-.002-.003-.002-.003-.001-.004-.002-.003-.002-.003-.001-.004-.002-.003-.001-.003-.002-.003-.001-.004-.002-.003-.001-.003-.002-.003-.001-.004-.002-.003-.001-.003-.001-.003-.002-.003-.001-.003-.001-.004-.002-.003-.001-.003-.001-.003-.002-.003v-.003l-.002-.003-.001-.003-.001-.003-.001-.003-.001-.003-.002-.003v-.003l-.002-.003v-.003l-.002-.003v-.003l-.002-.003v-.003l-.001-.003-.001-.003-.001-.002v-.003l-.002-.003v-.003l-.001-.003-.001-.003v-.002l-.001-.003-.001-.003V28.5l-.001-.002v-.003l-.002-.003v-.005l-.001-.003v-.002l-.001-.003v-.005l-.001-.003v-.002l-.001-.003a.59.59 0 0 1-.005-.088V28.369a.503.503 0 0 1 .015-.105c.039-.146.234-.408.443-.634.19-.203.41-.396.553-.466a.462.462 0 0 1 .146-.039v.001a.532.532 0 0 1 .094 0 .573.573 0 0 1 .181.054.62.62 0 0 1-.06-.184.592.592 0 0 1-.004-.088v-.01a.497.497 0 0 1 .015-.103c.03-.12.157-.306.312-.488.148-.172.328-.356.47-.473a.285.285 0 0 1 .191-.074v-4.129h3.835a.3.3 0 0 1 .115-.237c.037-.03.072-.054.101-.072a.607.607 0 0 1 .118-.057.532.532 0 0 1 .196-.02.568.568 0 0 1 .176.048h.001a.62.62 0 0 1-.06-.267V21.017a.495.495 0 0 1 .015-.104c.037-.145.233-.408.443-.634l.009-.01.009-.009.009-.01.009-.009.009-.01.009-.009.009-.009.009-.01.009-.009.01-.009.008-.009.01-.01.009-.008v-.001l.009-.008v-.001l.009-.008.001-.001.008-.008.001-.001.008-.008.002-.001.008-.008v-.001l.009-.008h.001l.008-.008.001-.002.008-.007.002-.001.008-.008.009-.008.001-.001.008-.008h.001l.008-.008.002-.001.007-.007.002-.002.007-.006.002-.002.007-.006.002-.002.008-.007.001-.001.008-.006.001-.002.008-.006.001-.002.008-.006.002-.002.007-.006.002-.001.006-.006.002-.002.007-.006.003-.001.006-.006.002-.002.007-.005.002-.002.007-.005.002-.002.007-.005.002-.002.006-.005.003-.002.006-.005.002-.002.006-.005.003-.001.006-.005.002-.002.009-.006.006-.005.002-.002.006-.004.003-.002.005-.004.003-.002.006-.004.002-.002.006-.004.002-.002.006-.003.003-.002.005-.004.002-.002.006-.003.002-.002.005-.003.003-.002.005-.003.003-.002.005-.003.003-.002.005-.003.002-.002.005-.003.003-.001.004-.003.003-.002.008-.004.004-.002.003-.002.004-.002.003-.002.004-.002.003-.001.004-.002.003-.002.004-.002.003-.001a.442.442 0 0 1 .146-.039.535.535 0 0 1 .093 0c.078.007.179.05.292.116a.584.584 0 0 1-.062-.178.58.58 0 0 1 .01-.198c.037-.142.226-.396.43-.614.203-.22.442-.425.579-.47a.422.422 0 0 1 .099-.02.542.542 0 0 1 .091 0c.067.006.15.039.244.09a.513.513 0 0 1-.05-.237.484.484 0 0 1 .014-.102c.037-.137.218-.382.413-.592.174-.186.374-.363.51-.431a.292.292 0 0 1 .113-.036.301.301 0 0 1 .095-.006l.03.001a.562.562 0 0 1 .19.063l-.002-.01a.541.541 0 0 1 .01-.193c.035-.133.208-.368.395-.568.187-.201.408-.39.536-.432a.413.413 0 0 1 .095-.02.467.467 0 0 1 .177.021.534.534 0 0 1-.002-.05v-.015a.46.46 0 0 1 .014-.095c.033-.126.194-.345.367-.531.15-.16.323-.313.445-.378a.292.292 0 0 1 .055-.024.43.43 0 0 1 .094-.019v.001a.512.512 0 0 1 .069-.002l.015.001a.47.47 0 0 1 .15.047l.001-.012a.45.45 0 0 1 .013-.093c.03-.118.179-.32.337-.49.158-.17.349-.332.462-.369a.375.375 0 0 1 .09-.018.475.475 0 0 1 .08 0 .466.466 0 0 1 .158.054l.003-.02a.33.33 0 0 1 .006-.029c.03-.112.167-.3.314-.459.148-.158.326-.309.433-.344.03-.01.06-.015.087-.017h.001a.442.442 0 0 1 .066-.001h.011c.075.007.186.064.311.15v-.017a.43.43 0 0 1 .013-.09c.03-.112.167-.3.314-.459.148-.158.326-.309.433-.344a.405.405 0 0 1 .153-.018h.012c.104.01.27.11.447.249a1.57 1.57 0 0 1 .273-.38c.137-.147.302-.286.404-.32a.37.37 0 0 1 .13-.017h.03c.155.014.42.204.636.417l.024.024c.047-.091.133-.204.223-.3.117-.127.263-.248.356-.278a.373.373 0 0 1 .151-.017c.135.012.352.163.534.336.043-.075.11-.16.177-.233.103-.11.232-.217.317-.245h.001a.36.36 0 0 1 .143-.014v-.001c.128.01.331.153.493.312.161.158.309.36.326.491a.415.415 0 0 1-.009.149.429.429 0 0 1-.044.102.401.401 0 0 1 .096-.05h.002a.359.359 0 0 1 .144-.015v-.001c.127.01.33.153.492.312.161.158.309.36.325.491a.415.415 0 0 1-.008.148v.002c-.022.088-.12.225-.221.334-.07.074-.15.146-.22.194l.024.023c.186.183.355.412.374.556a.42.42 0 0 1 .004.072v.003a.393.393 0 0 1-.012.081v.001a.198.198 0 0 1-.009.027v.002a1.41 1.41 0 0 1-.244.348 1.46 1.46 0 0 1-.284.244c.02.017.038.034.056.052.216.213.413.476.434.634.003.024.004.05.003.077v.002a.416.416 0 0 1-.012.087c-.027.106-.155.282-.29.428a1.546 1.546 0 0 1-.359.299c.143.175.247.34.261.446a.461.461 0 0 1 .004.08v.001a.441.441 0 0 1-.013.089c-.029.113-.167.302-.314.46-.147.159-.325.31-.433.344a.4.4 0 0 1-.087.018h-.016c.09.125.15.235.159.312a.486.486 0 0 1-.01.168v.003c-.028.112-.166.3-.313.459-.147.159-.325.31-.433.344a.44.44 0 0 1-.046.012c.032.06.053.115.058.158a.502.502 0 0 1-.009.177c-.03.118-.178.32-.336.49-.159.17-.35.332-.462.368a.418.418 0 0 1-.089.017l-.002.002h-.011a.504.504 0 0 1 .051.15.51.51 0 0 1 .004.088v.007a.45.45 0 0 1-.013.09.946.946 0 0 1-.173.304 2.778 2.778 0 0 1-.082.1h.736c6.59-7.912 9.816-16.104 9.816-16.104l-3.99 3.957C33.009 5.938 35.583 2.978 38 0c0 0-4.642 2.33-12.875 8.53-4.23 3.184-8.026 6.511-11.621 9.986.215-1.976.02-3.95-.9-5.761Zm4.073 24.475c0 .932-.583 1.398-1.75 1.398h-6.15V22.615h6.15c1.167 0 1.75.474 1.75 1.42v3.285c0 .532-.291.835-.875.91.584.088.875.399.875.931v8.068Zm-3.523-7.58H12.3v6.182h.854V29.65Zm0-4.216H12.3v1.398h.854v-1.398ZM25.476 37.23c0 .932-.584 1.398-1.751 1.398h-4.4c-1.167 0-1.75-.466-1.75-1.398V22.615h3.523v13.216h.854V22.615h3.524V37.23Zm3.118-3.155c-1.481 0-2.221-.762-2.221-2.286v-9.173h3.523v8.663h.854v-8.663h3.524v9.173c0 1.524-.719 2.286-2.157 2.286v4.553h-3.523v-4.553Zm-25.218-7.49c-.696-.583-3.456 1.817-3.374 2.89.41-.132 1.926-.222 2.007.214.429-.779 1.267-2.239 1.367-3.104Zm7.941 14.742a2.51 2.51 0 0 1-.026-.2l-.028-.228a1.725 1.725 0 0 1-.136.432L10.352 43l-.774-1.704a2.429 2.429 0 0 1-.146-.398 2.03 2.03 0 0 1-.054.432l-.318 1.543h-.443l.7-3.264.874 1.976c.013.031.034.084.061.156l.1.27c.028-.09.073-.204.134-.342l.036-.086.854-1.974.716 3.264h-.448l-.327-1.547Zm4.085 1.547V39.74h1.652v.434h-1.172v.784h1.172v.447h-1.172v1.012h1.172v.456h-1.652Zm5.13 0V39.74h.647c.423 0 .72.023.892.067.172.045.323.12.452.226.172.139.301.316.39.533.088.217.132.464.132.743 0 .278-.044.524-.132.739a1.328 1.328 0 0 1-.39.532 1.19 1.19 0 0 1-.442.226c-.165.044-.422.067-.772.067h-.778Zm.48-.46h.405c.222 0 .39-.015.5-.047a.72.72 0 0 0 .29-.158.943.943 0 0 0 .253-.379c.056-.15.084-.325.084-.525s-.028-.374-.084-.525a.944.944 0 0 0-.252-.378.735.735 0 0 0-.3-.159 2.31 2.31 0 0 0-.548-.046h-.348v2.217Zm5.519.46V39.74h.48v3.133h-.48Zm6.054 0-.335-.806h-1.174l-.343.806h-.506l1.434-3.256 1.432 3.256h-.508Zm-1.33-1.231h.825l-.304-.715a2.859 2.859 0 0 1-.11-.355 2.635 2.635 0 0 1-.108.355l-.304.715ZM7.816 36.175c-.403-.235-1.165-1.015-1.198-1.273a.24.24 0 0 1 .003-.087c.05-.192.663-.851.847-.91a.223.223 0 0 1 .085-.008c.061.005.154.053.263.128v2.15Zm-2.06-7.834a.237.237 0 0 0-.004.087c.039.301 1.071 1.314 1.366 1.34a.223.223 0 0 0 .085-.008c.116-.037.405-.315.613-.563v-.828c-.332-.406-.918-.928-1.129-.946a.221.221 0 0 0-.084.007c-.185.06-.798.719-.847.91Zm1.367-1.47a.238.238 0 0 0-.003.086c.021.17.355.562.696.879v-1.777c-.253.204-.653.658-.693.811Zm5.238-5.24a.53.53 0 0 0-.204-.09.221.221 0 0 0-.084.008.503.503 0 0 0-.133.082h.42ZM4.819 33.045a.238.238 0 0 0-.003.087c.038.302 1.07 1.315 1.366 1.34a.221.221 0 0 0 .084-.007c.185-.06.798-.718.847-.91a.24.24 0 0 0 .004-.087c-.04-.302-1.072-1.315-1.366-1.34a.221.221 0 0 0-.085.007c-.184.06-.797.718-.847.91Zm1.368-1.47a.238.238 0 0 0-.004.087c.039.301 1.071 1.314 1.366 1.34a.221.221 0 0 0 .085-.007.676.676 0 0 0 .183-.124v-1.724c-.277-.261-.564-.478-.699-.49a.217.217 0 0 0-.084.008c-.185.059-.798.718-.847.91Zm1.367-1.47a.237.237 0 0 0-.003.087c.012.092.117.252.266.43v-.9c-.135.157-.243.306-.263.383Zm19.748-16.332a.091.091 0 0 1-.035.003c-.12-.01-.539-.422-.555-.545a.098.098 0 0 1 .002-.035c.02-.078.269-.346.344-.37a.09.09 0 0 1 .034-.003c.12.01.54.422.555.545a.097.097 0 0 1-.001.035c-.02.078-.27.346-.344.37Zm-2.136-.635a.108.108 0 0 1-.041.004c-.145-.013-.65-.51-.67-.657a.115.115 0 0 1 .002-.043c.024-.094.325-.417.415-.446a.112.112 0 0 1 .041-.004c.145.013.65.51.67.657a.12.12 0 0 1-.002.043c-.024.094-.324.417-.415.446Zm1.007.988a.11.11 0 0 1-.041.004c-.145-.013-.65-.51-.67-.657a.116.116 0 0 1 .002-.043c.024-.094.324-.417.415-.446a.113.113 0 0 1 .041-.004c.145.013.65.51.67.657a.119.119 0 0 1-.002.043c-.024.094-.325.417-.415.446Zm1.007.988a.11.11 0 0 1-.042.003c-.144-.012-.65-.509-.669-.656a.118.118 0 0 1 .002-.043c.024-.094.324-.417.415-.446a.11.11 0 0 1 .041-.004c.145.013.65.51.67.657a.118.118 0 0 1-.002.043c-.025.094-.325.417-.415.446Zm-.142 1.564a.131.131 0 0 1-.05.005c-.174-.016-.784-.614-.806-.792a.14.14 0 0 1 .002-.052c.029-.113.39-.502.5-.537a.131.131 0 0 1 .05-.005c.174.015.784.614.807.792a.141.141 0 0 1-.002.051c-.03.114-.392.503-.5.538Zm-.45 1.4a.144.144 0 0 1-.054.005c-.193-.016-1.014-.822-1.04-1.02a.155.155 0 0 1 .003-.056c.032-.125.432-.556.553-.594a.144.144 0 0 1 .055-.005c.192.017 1.014.822 1.039 1.02a.158.158 0 0 1-.002.056c-.033.126-.433.556-.553.595Zm-.7 1.304a.144.144 0 0 1-.054.005c-.193-.017-1.063-.87-1.089-1.067a.158.158 0 0 1 .003-.057c.032-.126.432-.556.553-.595a.144.144 0 0 1 .055-.005c.192.017 1.063.871 1.088 1.068a.158.158 0 0 1-.002.057c-.033.125-.433.555-.553.594Zm-.795 1.206a.159.159 0 0 1-.06.005c-.21-.018-1.095-.886-1.122-1.101a.174.174 0 0 1 .002-.062c.035-.137.473-.607.605-.65a.157.157 0 0 1 .06-.005c.21.018 1.095.886 1.122 1.1a.17.17 0 0 1-.002.063c-.036.137-.473.607-.605.65Zm-1.392 1.043c-.33-.278-.718-.707-.739-.866a.188.188 0 0 1 .003-.069c.04-.153.527-.677.674-.724a.177.177 0 0 1 .067-.006c.235.02 1.105.875 1.136 1.115a.19.19 0 0 1-.002.069c-.023.09-.2.307-.373.48h-.766Zm-1.659 0c.181-.214.428-.451.53-.484a.194.194 0 0 1 .073-.006c.127.01.414.235.674.49h-1.276Zm3.824-6.103a.129.129 0 0 1-.05.004c-.174-.015-.637-.47-.66-.647a.139.139 0 0 1 .003-.051c.029-.114.39-.503.5-.538a.132.132 0 0 1 .05-.005c.174.015.636.47.66.647a.14.14 0 0 1-.003.052c-.03.113-.391.502-.5.538Zm-.7 1.155a.146.146 0 0 1-.054.005c-.193-.017-.818-.63-.843-.827a.155.155 0 0 1 .002-.057c.032-.125.432-.555.553-.594a.143.143 0 0 1 .055-.005c.193.017.817.63.843.827a.158.158 0 0 1-.003.057c-.032.125-.432.555-.552.594Zm-.794 1.211a.144.144 0 0 1-.055.005c-.192-.017-.995-.804-1.02-1.001a.156.156 0 0 1 .002-.057c.032-.125.432-.555.553-.594a.146.146 0 0 1 .055-.005c.192.017.995.804 1.02 1.001a.153.153 0 0 1-.002.057c-.032.125-.432.555-.553.594Zm-.87 1.133a.157.157 0 0 1-.06.005c-.21-.018-1.076-.867-1.103-1.082a.172.172 0 0 1 .002-.063c.036-.137.473-.607.605-.65a.157.157 0 0 1 .06-.005c.21.019 1.076.868 1.104 1.083a.169.169 0 0 1-.003.062c-.035.137-.473.608-.604.65Zm-.977 1.237a.177.177 0 0 1-.067.006c-.235-.02-1.155-.923-1.186-1.163a.188.188 0 0 1 .003-.069c.04-.153.527-.677.674-.724a.175.175 0 0 1 .067-.006c.235.02 1.155.923 1.186 1.163a.191.191 0 0 1-.003.069c-.04.153-.527.677-.674.724Zm-1.076 1.297a.194.194 0 0 1-.074.006c-.257-.023-1.204-.952-1.237-1.214a.207.207 0 0 1 .003-.076c.043-.167.576-.74.736-.792a.194.194 0 0 1 .074-.007c.256.023 1.204.952 1.237 1.215a.208.208 0 0 1-.003.075c-.043.168-.576.74-.736.793Zm-2.55.07.005-.03c.046-.176.61-.782.779-.836a.204.204 0 0 1 .078-.007c.194.017.735.498 1.04.873h-1.902Zm4.074-8.942a.139.139 0 0 0-.002.051c.023.178.633.777.807.792.016.002.034 0 .05-.004.109-.035.471-.425.5-.538a.144.144 0 0 0 .002-.051c-.023-.178-.632-.777-.807-.792a.127.127 0 0 0-.05.004c-.108.035-.47.425-.5.538Zm-1.341.525a.158.158 0 0 0-.003.057c.026.197.847 1.003 1.04 1.02.017.001.037 0 .055-.005.12-.039.52-.47.552-.595a.155.155 0 0 0 .003-.056c-.026-.197-.847-1.003-1.04-1.02a.146.146 0 0 0-.054.005c-.121.039-.521.469-.553.594Zm-1.236.778a.155.155 0 0 0-.003.057c.026.197.896 1.05 1.089 1.068.017.001.037 0 .055-.005.12-.039.52-.47.553-.595a.158.158 0 0 0 .002-.056c-.025-.197-.896-1.051-1.088-1.068a.144.144 0 0 0-.056.005c-.12.039-.52.469-.552.594Zm-1.136.871a.171.171 0 0 0-.003.063c.028.215.912 1.082 1.122 1.1.02.002.041.002.06-.005.132-.042.57-.512.605-.65a.173.173 0 0 0 .003-.062c-.028-.215-.912-1.082-1.123-1.1a.157.157 0 0 0-.06.005c-.132.042-.57.512-.604.65Zm-1.21 1.011a.193.193 0 0 0-.002.07c.03.24.901 1.093 1.136 1.114.021.002.046.001.067-.006.147-.047.635-.572.674-.724a.188.188 0 0 0 .003-.07c-.03-.24-.902-1.094-1.136-1.115a.178.178 0 0 0-.068.006c-.146.048-.634.572-.673.725Zm-1.215 1.16a.203.203 0 0 0-.003.075c.034.263.932 1.144 1.189 1.166.023.003.05.001.073-.006.16-.052.694-.625.737-.792a.208.208 0 0 0 .003-.076c-.034-.262-.932-1.143-1.189-1.166a.19.19 0 0 0-.073.007c-.16.051-.694.624-.737.792Zm-1.358 1.204a.216.216 0 0 0-.004.08c.036.278.985 1.209 1.257 1.233a.204.204 0 0 0 .077-.007c.17-.055.733-.66.779-.837a.22.22 0 0 0 .003-.08c-.036-.277-.985-1.209-1.256-1.233a.2.2 0 0 0-.078.007c-.17.055-.733.66-.778.837ZM14.07 19.59a.227.227 0 0 0-.003.084c.037.29 1.029 1.262 1.312 1.288a.214.214 0 0 0 .081-.008c.178-.057.767-.69.814-.875a.228.228 0 0 0 .003-.083c-.037-.29-1.029-1.263-1.312-1.288a.212.212 0 0 0-.081.007c-.178.057-.767.69-.814.875Zm-1.476 1.4a.239.239 0 0 0-.003.086c.014.114.17.33.376.555h1.853c.035-.054.06-.1.068-.133a.241.241 0 0 0 .004-.086c-.04-.302-1.071-1.315-1.366-1.34a.221.221 0 0 0-.085.007c-.184.06-.797.718-.847.91Zm11.552-7.15a.14.14 0 0 0-.002.05c.023.18.485.633.66.648.015.002.033 0 .05-.004.108-.035.47-.425.5-.538a.14.14 0 0 0 .001-.052c-.023-.178-.485-.631-.66-.647a.13.13 0 0 0-.049.005c-.11.035-.471.424-.5.538Zm-1.092.77a.158.158 0 0 0-.002.057c.025.197.65.81.842.826.018.002.038.001.055-.004.121-.04.521-.47.553-.595a.155.155 0 0 0 .003-.056c-.026-.197-.65-.81-.843-.827a.146.146 0 0 0-.055.004c-.12.04-.52.47-.553.595Zm-1.142.87a.158.158 0 0 0-.002.057c.025.197.828.984 1.02 1.001.018.002.038.001.055-.005.12-.038.521-.469.553-.594a.158.158 0 0 0 .003-.057c-.026-.197-.828-.984-1.02-1.001a.145.145 0 0 0-.056.005c-.12.039-.52.469-.553.594Zm-1.062.944a.172.172 0 0 0-.002.062c.027.215.893 1.065 1.103 1.083.02.002.041.001.06-.005.132-.043.57-.513.605-.65a.171.171 0 0 0 .003-.062c-.028-.215-.894-1.065-1.104-1.083a.159.159 0 0 0-.06.005c-.132.043-.57.513-.605.65Zm-1.159 1.06a.192.192 0 0 0-.002.07c.03.24.95 1.142 1.185 1.162.021.002.046.001.067-.006.147-.047.635-.571.674-.724a.188.188 0 0 0 .003-.07c-.031-.24-.95-1.142-1.185-1.163a.177.177 0 0 0-.068.006c-.147.048-.634.572-.674.725Zm-1.211 1.164a.21.21 0 0 0-.003.075c.034.262.98 1.192 1.237 1.215.023.002.05 0 .074-.007.16-.052.694-.625.737-.792a.21.21 0 0 0 .003-.076c-.034-.262-.981-1.192-1.238-1.214a.194.194 0 0 0-.073.006c-.161.052-.694.625-.737.793Zm-1.254 1.307a.22.22 0 0 0-.004.08c.036.277.985 1.208 1.256 1.232a.203.203 0 0 0 .078-.007c.17-.055.733-.66.779-.837a.223.223 0 0 0 .003-.08c-.036-.277-.985-1.209-1.256-1.233a.2.2 0 0 0-.078.008c-.17.054-.733.66-.778.837Zm-1.39 1.367a.227.227 0 0 0-.004.084c.01.079.09.208.209.355.213.057.404.133.575.229v-.36h1.393c-.182-.365-1.022-1.167-1.28-1.19a.21.21 0 0 0-.08.007c-.178.057-.766.69-.814.875Zm10.459-8.537a.09.09 0 0 1-.034.003c-.12-.01-.54-.422-.555-.545a.096.096 0 0 1 0-.035c.021-.078.27-.346.345-.37a.093.093 0 0 1 .034-.003c.12.01.54.422.555.545a.096.096 0 0 1 0 .035c-.021.078-.27.346-.345.37Zm.183.233v.001ZM24.5 18.48a.408.408 0 0 1-.042-.122.488.488 0 0 1 .01-.17v-.001l.003-.013-.012.005a.4.4 0 0 1-.084.017.354.354 0 0 1 .025.164.411.411 0 0 1-.043.17.387.387 0 0 1 .143-.05Zm-.837.797a.388.388 0 0 1-.165.053h-.039a.408.408 0 0 1 .03.102l.001.014a.522.522 0 0 1 .003.072v.002a.449.449 0 0 1-.014.096.61.61 0 0 1-.07.15.58.58 0 0 1 .166-.085.426.426 0 0 1 .096-.013.451.451 0 0 1-.047-.137v-.002a.514.514 0 0 1 .009-.175.414.414 0 0 1 .03-.077Zm1.668-1.913a.702.702 0 0 1-.123-.262.486.486 0 0 1 0-.123.376.376 0 0 1-.042.006h-.001a.444.444 0 0 1-.044.002c.052.084.086.16.094.218a.493.493 0 0 1-.01.17l-.003.013.012-.004a.404.404 0 0 1 .117-.02Zm-.463-2.458a.487.487 0 0 1-.002-.06v-.011h-.013a.37.37 0 0 1-.044.001h-.014a.471.471 0 0 1-.002.076.525.525 0 0 1 .075-.005Zm-.887.88a.411.411 0 0 1-.098.005h-.012a.33.33 0 0 1-.06-.012.307.307 0 0 1 .017.065.491.491 0 0 1 .002.103.478.478 0 0 1 .022-.002l.012-.001a.46.46 0 0 1 .066 0l.01.002a.287.287 0 0 1 .055.012.5.5 0 0 1-.014-.17Zm-1.226 4.684a.61.61 0 0 0-.07.15.462.462 0 0 0-.013.09v.007a.514.514 0 0 0 .002.072l.001.015a.36.36 0 0 0 .008.04h-.015a.502.502 0 0 0-.212.03.482.482 0 0 0 .023-.127v-.003a.394.394 0 0 0-.026-.175h.056l.01-.001a.415.415 0 0 0 .236-.098Zm-2.881.01a.421.421 0 0 0-.179-.02v.001a.512.512 0 0 0-.074.012.528.528 0 0 0 .004-.168.422.422 0 0 0-.023-.091.375.375 0 0 0 .214.015.437.437 0 0 0 .04-.008.48.48 0 0 0-.01.079v.002a.405.405 0 0 0 .027.177Zm.936-1.285a.5.5 0 0 0 .009-.079v-.015a.531.531 0 0 0-.007-.094.49.49 0 0 0 .123.005v.002a.404.404 0 0 0 .051-.008.483.483 0 0 0-.004.046v.007a.522.522 0 0 0 .01.124.507.507 0 0 0-.183.011Zm-2.192 2.357-.003.016v.003a.31.31 0 0 0-.006.06h-.31a.303.303 0 0 0-.027-.125c.07.033.131.054.183.058a.448.448 0 0 0 .164-.013Zm-1.634-1.328a.648.648 0 0 0-.23-.081.544.544 0 0 0-.131.006.446.446 0 0 0-.06.015v-.001l-.012.004.003-.012a.493.493 0 0 0 .01-.198.585.585 0 0 0-.061-.178c.077.04.146.064.203.07a.517.517 0 0 0 .089-.002v.001a.454.454 0 0 0 .098-.02.455.455 0 0 0 .089-.042.477.477 0 0 0-.037.092.49.49 0 0 0 .04.346Zm-1.426 1.011-.003.011a.493.493 0 0 0-.01.198c.009.073.038.152.082.233a4.66 4.66 0 0 0-.479-.042.515.515 0 0 0 .03-.262.649.649 0 0 0-.077-.21.69.69 0 0 0 .254.096.469.469 0 0 0 .192-.02l.011-.004Zm2.271-2.36a.44.44 0 0 1 .248-.063l.029.001c.03.003.065.011.103.025a.386.386 0 0 1-.024-.152v-.016a.486.486 0 0 1 .024-.128.313.313 0 0 1-.087.025.504.504 0 0 1-.125.006.454.454 0 0 1-.132-.037.561.561 0 0 1 .001.246.476.476 0 0 1-.037.093Zm1.29-1.527.002.015a.541.541 0 0 1-.01.19.324.324 0 0 1-.01.029.414.414 0 0 1 .126-.03.378.378 0 0 1 .171.02.526.526 0 0 1 0-.053v-.016a.459.459 0 0 1 .013-.096.614.614 0 0 1 .07-.15.812.812 0 0 1-.142.08.428.428 0 0 1-.094.018h-.001a.488.488 0 0 1-.125-.007Zm2.785.67a.413.413 0 0 1 .137-.008l.015.002a.51.51 0 0 1-.008-.107v-.007l.004-.038-.008.001a.483.483 0 0 1-.104.006h-.013a.234.234 0 0 1-.024-.004l.002.014a.52.52 0 0 1-.001.141Zm-1.769-1.464a.82.82 0 0 1 .143-.079.488.488 0 0 1 .18-.019.38.38 0 0 1 .099.026.494.494 0 0 1 .013-.134.414.414 0 0 1 .03-.077.388.388 0 0 1-.074.035h-.001a.413.413 0 0 1-.09.018v-.001a.46.46 0 0 1-.08.001.426.426 0 0 1-.136-.043.56.56 0 0 1-.014.122.606.606 0 0 1-.07.151Zm1.201-1.178a.42.42 0 0 1-.042.149l.014-.008a.279.279 0 0 1 .115-.04.474.474 0 0 1 .116-.005.33.33 0 0 1 .08.02.436.436 0 0 1 .013-.088l.003-.012-.012.004a.414.414 0 0 1-.074.017l-.013.001a.466.466 0 0 1-.08 0 .39.39 0 0 1-.12-.038Zm1.572 1.46a.508.508 0 0 1-.003.105.4.4 0 0 1 .045-.006l.03-.001h.03a.505.505 0 0 1-.003-.101.498.498 0 0 1-.022.003h-.002a.452.452 0 0 1-.066 0h-.009Zm-.542-2.23.013-.005a.401.401 0 0 1 .166-.017.578.578 0 0 1 .216.087.47.47 0 0 1 .003-.09.374.374 0 0 1-.026.005l-.015.002a.443.443 0 0 1-.066 0h-.012a.667.667 0 0 1-.262-.115v.031a.48.48 0 0 1-.013.09l-.004.012ZM6.906 30.004a.573.573 0 0 0 .19.061l.009.001a.545.545 0 0 0 .084-.002v.001a.457.457 0 0 0 .08-.014.51.51 0 0 0-.01.082V30.142a.616.616 0 0 0 .061.268.577.577 0 0 0-.178-.05.534.534 0 0 0-.094 0 .464.464 0 0 0-.08.014.534.534 0 0 0-.062-.37Zm-1.005 1.517a.518.518 0 0 0-.01.082V31.612c0 .03.002.061.005.088a.61.61 0 0 0 .067.19.575.575 0 0 0-.189-.06.554.554 0 0 0-.189.018.4.4 0 0 0 .035-.162.436.436 0 0 0-.028-.188c.05.021.095.034.135.038a.554.554 0 0 0 .095-.001.46.46 0 0 0 .08-.014Zm1.435 1.718a.573.573 0 0 0 .19.06l.01.001a.548.548 0 0 0 .184-.02.53.53 0 0 0 .097-.044v.443l-.03-.015a.632.632 0 0 0-.193-.063H7.59l-.011-.002a.508.508 0 0 0-.182.017.522.522 0 0 0-.06-.377Z" fill="#fff"/></svg>