<svg xmlns="http://www.w3.org/2000/svg" width="40" height="41" fill="none"><path fill-rule="evenodd" clip-rule="evenodd" d="M10.36 26.979a4.17 4.17 0 0 0-1.096.535c-1.259.887-1.842 2.218-2.06 3.697-1.504 0-2.91-.915-1.855-2.528.815-1.26 2.052-1.718 3.458-1.958 1.293-.225 3.437-.472 4.716-.64-1.63 3.359-3.198 6.788-4.913 10.098-.738 1.465-1.589 2.528-2.545 3.197a5.567 5.567 0 0 1-3.254 1.007c-1.223 0-2.122-.591-2.15-1.887-.043-1.803 1.433-3.69 3.106-4.303.612-.218 1.258-.225 1.933-.014-.21.197-.45.479-.724.845-.71.958-2.326 3.493-2.362 4.704-.007.24.085.352.268.352 1.567 0 7.492-13.084 7.478-13.105Zm4.428-5.789 2.144-.014-2.116 1.437.021.71c1.132 0 2.334.163 3.451.628 5.581 2.33 2.383 6.767-2.052 7.57 1.7.387 2.755 1.641 1.96 3.423-1.616 3.591-7.674 4.471-10.563 3.598l.246-.359c4.948 1.26 9.503-3.401 7.647-5.965-.232-.324-.604-.443-.991-.465l-2.551 5.233-2.91.408L14.57 26.12l2.91-.409-2.734 5.606c2.362-.317 5.482-4.895 3.05-6.134-1.904-.965-5.953-.31-8.033.31-2.84-3.042-6.101-5.704-9.763-7.845C4.47 14.388 5.869 13 8.673 8.232c0 0 2.362 2.423 6.48 3.134l-.646-3.627L25.627 0l-1.33 11.45c4.457-.57 7.03-3.218 7.03-3.218C34.136 13 35.528 14.387 40 17.648 30.968 22.93 24.396 31.345 20.558 41c.633-3.662 1.962-7.07 3.74-10.24l-1.427-.971 1.863.014a64.379 64.379 0 0 0 .442-5.085l-4.927-1.81 4.984.296c.049-1.669.049-2.922.049-2.922-3.163-1.303-7.345-1.303-10.494 0v.908Zm12.195-1.768s-.85-.957-3.444-1.464l.569-4.88c1.63-.092 4.941-.648 6.248-1.409 1.273 2.077 3.086 4.14 5.04 5.606-3.212 2.993-6.305 6.288-8.85 9.922.458-2.535.437-7.774.437-7.774Zm-11.534-6.38L16.327 18c-2.432.514-3.247 1.422-3.247 1.422s.05 2.684.098 4.022c-.9.112-1.68.303-2.242.465-1.96-2.367-4.118-4.571-6.332-6.634 1.953-1.465 3.767-3.528 5.046-5.606 1.272.746 4.203 1.218 5.799 1.373Zm6.74 4.719a20.727 20.727 0 0 0-4.625.035l-1.476-9.409 3.817-2.281.787 10.162.935-11.324 1.532-.845-.97 13.662Z" fill="#fff"/></svg>