<svg width="32" height="48" fill="none" xmlns="http://www.w3.org/2000/svg"><path fill-rule="evenodd" clip-rule="evenodd" d="M9.21 26.048c0 .841-.657 1.36-1.366 1.36-.431 0-.846-.191-1.132-.619l-1.37-2.068c-.606-.975-1.48-1.379-2.353-1.38-1.505 0-2.985 1.206-2.989 2.757v.019c.002.474.142.98.461 1.493l10.79 20.159a.43.43 0 0 0 .363.231h15.152a.42.42 0 0 0 .408-.392l.38-6.032a.405.405 0 0 1 .067-.2c3.76-5.556 4.837-9.137 4.213-12.768-.65-3.782-3.383-4.386-4.667-4.457a1.285 1.285 0 0 1-1.002-.553c-.93-1.386-2.177-1.752-3.236-1.752-.76 0-1.424.19-1.803.326a.437.437 0 0 1-.518-.187c-.946-1.582-2.289-1.99-3.423-1.99a4.91 4.91 0 0 0-.491.025 5.78 5.78 0 0 0-1.158.239.77.77 0 0 1-.172.019c-.217 0-.456-.174-.456-.4v-8.13c0-.302-.037-.58-.106-.833-.347-1.271-1.488-1.922-2.655-1.953l-.087-.002c-1.167 0-2.327.619-2.714 1.857a3.056 3.056 0 0 0-.135.93v14.301Zm9.339-11c.21-.04.407-.14.562-.302a8.897 8.897 0 0 0 1.053-1.47 8.765 8.765 0 0 0 1.16-4.35C21.324 4.004 17.22 0 12.174 0c-5.045 0-9.15 4.004-9.15 8.926 0 1.53.403 3.026 1.157 4.347a8.897 8.897 0 0 0 1.052 1.469c.132.137.295.23.47.28a1.066 1.066 0 0 0 .957-.201.994.994 0 0 0 .084-1.465 6.878 6.878 0 0 1-1.385-2.562 6.757 6.757 0 0 1-.198-2.81c.473-3.364 3.438-5.962 7.013-5.962 3.622 0 6.617 2.665 7.03 6.09a6.78 6.78 0 0 1-1.603 5.25H17.6l-.032.037a.993.993 0 0 0 .117 1.424 1.044 1.044 0 0 0 .864.224ZM7.329 8.255c.333-2.31 2.361-4.09 4.818-4.102h.027c2.608 0 4.739 1.99 4.884 4.498a4.695 4.695 0 0 1-.195 1.635 4.66 4.66 0 0 0-.672-1.361c-.871-1.213-2.316-1.979-4.017-1.987a6.075 6.075 0 0 0-.114 0c-1.674.027-3.094.788-3.955 1.987l-.01.014c-.27.38-.486.804-.635 1.261a4.688 4.688 0 0 1-.13-1.945Zm9.109 14.864c-.337.106-.636.134-.7.14h-.006a3.498 3.498 0 0 1-2.588-.784 3.48 3.48 0 0 1-.933-1.21v4.782c0 2.705-2.217 4.36-4.367 4.36a4.313 4.313 0 0 1-3.29-1.51L13.17 45h11.161l.227-3.598v-.01c.037-.595.23-1.185.578-1.697 3.599-5.318 4.17-8.085 3.74-10.579-.197-1.147-.623-1.509-.833-1.652-.307-.21-.706-.3-1.044-.318a4.284 4.284 0 0 1-3.326-1.876m-7.236-2.15c.211-.066.485-.125.747-.125.213 0 .348.038.434.082.062.03.218.12.413.446l.003.006a3.437 3.437 0 0 0 4.104 1.466h.002c.192-.07.495-.149.788-.149.189 0 .308.033.385.07.055.025.188.097.36.354" fill="#fff"/></svg>