<svg xmlns="http://www.w3.org/2000/svg" xml:space="preserve" style="shape-rendering:geometricPrecision;text-rendering:geometricPrecision;image-rendering:optimizeQuality;fill-rule:evenodd;clip-rule:evenodd" viewBox="0 0 9466.62 8301.44" xmlns:xlink="http://www.w3.org/1999/xlink"><defs><linearGradient id="a" gradientUnits="userSpaceOnUse" x1="1082.03" y1="4150.65" x2="8384.6" y2="4150.65"><stop offset="0" style="stop-opacity:1;stop-color:#c50092"/><stop offset="1" style="stop-opacity:1;stop-color:#d96cbc"/></linearGradient><linearGradient id="m" gradientUnits="userSpaceOnUse" xlink:href="#a" x1="20.48" y1="4150.74" x2="9446.16" y2="4150.74"/><linearGradient id="n" gradientUnits="userSpaceOnUse" xlink:href="#a" x1="0" y1="4150.75" x2="9466.62" y2="4150.75"/><linearGradient id="i" gradientUnits="userSpaceOnUse" xlink:href="#a" x1="412.24" y1="4150.71" x2="9054.38" y2="4150.71"/><linearGradient id="l" gradientUnits="userSpaceOnUse" xlink:href="#a" x1="73.39" y1="4150.79" x2="9393.24" y2="4150.79"/><linearGradient id="t" gradientUnits="userSpaceOnUse" xlink:href="#a" x1="602.2" y1="4150.75" x2="8864.43" y2="4150.75"/><linearGradient id="j" gradientUnits="userSpaceOnUse" xlink:href="#a" x1="270.88" y1="4150.71" x2="9195.75" y2="4150.71"/><linearGradient id="o" gradientUnits="userSpaceOnUse" xlink:href="#a" x1="13.05" y1="4150.72" x2="9453.59" y2="4150.72"/><linearGradient id="p" gradientUnits="userSpaceOnUse" xlink:href="#a" x1="60.5" y1="4150.72" x2="9406.14" y2="4150.72"/><linearGradient id="c" gradientUnits="userSpaceOnUse" xlink:href="#a" x1="1728.76" y1="4150.7" x2="7737.88" y2="4150.7"/><linearGradient id="k" gradientUnits="userSpaceOnUse" xlink:href="#a" x1="157.35" y1="4150.75" x2="9309.28" y2="4150.75"/><linearGradient id="u" gradientUnits="userSpaceOnUse" xlink:href="#a" x1="825.21" y1="4150.69" x2="8641.42" y2="4150.69"/><linearGradient id="b" gradientUnits="userSpaceOnUse" xlink:href="#a" x1="2004.72" y1="4150.77" x2="7461.87" y2="4150.77"/><linearGradient id="s" gradientUnits="userSpaceOnUse" xlink:href="#a" x1="413.85" y1="4150.71" x2="9052.76" y2="4150.71"/><linearGradient id="h" gradientUnits="userSpaceOnUse" xlink:href="#a" x1="579.55" y1="4150.7" x2="8887.09" y2="4150.7"/><linearGradient id="r" gradientUnits="userSpaceOnUse" xlink:href="#a" x1="260.69" y1="4150.75" x2="9205.95" y2="4150.75"/><linearGradient id="q" gradientUnits="userSpaceOnUse" xlink:href="#a" x1="142.92" y1="4150.71" x2="9323.7" y2="4150.71"/><linearGradient id="f" gradientUnits="userSpaceOnUse" xlink:href="#a" x1="983.58" y1="4150.74" x2="8483.05" y2="4150.74"/><linearGradient id="e" gradientUnits="userSpaceOnUse" xlink:href="#a" x1="1215.83" y1="4150.75" x2="8250.8" y2="4150.75"/><linearGradient id="d" gradientUnits="userSpaceOnUse" xlink:href="#a" x1="1464.82" y1="4150.71" x2="8001.81" y2="4150.71"/><linearGradient id="g" gradientUnits="userSpaceOnUse" xlink:href="#a" x1="770.72" y1="4150.69" x2="8695.91" y2="4150.69"/></defs><path d="M7230.17 648.14c-31.01 0-63.89 5.64-97.75 16.58L2487.36 2177.29c-180.52 58.81-331.47 257.98-336.48 444L2021.37 7410c-2.36 87.67 27.98 159.57 85.41 202.46 59.13 44.17 139.88 52.78 227.44 24.27l4645.02-1512.57c180.52-58.77 331.51-257.95 336.55-444l129.47-4788.61h8.26-8.26c2.36-87.84-27.98-159.45-85.41-202.49-36.26-27.17-80.64-40.92-129.68-40.92zM2236.39 7669.79c-52.6 0-100.29-14.85-139.49-44.1-61.88-46.18-94.54-122.94-92.04-216.11l129.51-4788.71c5.18-192.48 161.25-398.5 347.87-459.28L7127.3 649.19c92.82-30.33 178.9-20.81 242.43 26.46 61.88 46.22 94.54 123.12 92 216.26L7332.3 5680.58c-5.22 192.48-161.29 398.5-347.91 459.28L2339.33 7652.43c-35.59 11.61-70.2 17.36-102.94 17.36z" style="fill:url(#b);fill-rule:nonzero"/><path d="M7501.74 776.9c-23.81 0-48.79 2.82-74.54 9.17L2667.98 1922.05c-184.93 44.17-352.64 235.2-373.88 425.88l-546.34 4906.39c-10.2 91.73 14.78 169.3 70.41 218.44 54.86 48.51 133.42 63.64 221.26 42.69L6798.65 6379.4c184.93-44.13 352.64-235.2 373.88-425.87l546.34-4906.4c10.2-91.72-14.78-169.34-70.41-218.37-38.77-34.22-89.39-51.86-146.72-51.86zM1964.79 7541.41c-61.39 0-115.82-19.05-157.73-56.09-59.83-52.84-86.78-135.57-75.95-232.87l546.34-4906.39c21.95-197.1 195.41-394.66 386.65-440.31L7423.28 769.84c93.31-22.57 177.2-5.99 236.26 46.22 59.83 52.92 86.82 135.47 75.99 232.83L7189.18 5955.4c-21.94 197.13-195.4 394.65-386.65 440.3L2043.31 7531.78c-27.09 6.46-53.41 9.63-78.52 9.63z" style="fill:url(#c);fill-rule:nonzero"/><path d="M7759.51 933.18c-15.91 0-32.38 1.41-49.28 3.88l-4840.07 739.11c-188.04 28.71-371.73 209.86-409.51 403.82l-971.87 4989.8c-18.55 95.28.57 178.32 53.87 233.85 50.45 52.53 126.3 74.12 213.72 60.79l4840.11-739.14c188.03-28.72 371.72-209.87 409.5-403.83l971.87-4989.79 8.36 1.62-8.36-1.62c18.55-95.29-.57-178.19-53.87-233.93-40.71-42.33-97.97-64.56-164.47-64.56zm-6052.5 6452.13c-71.15 0-132.64-24.06-176.63-69.85-57.26-59.65-77.97-148.06-58.32-248.92l971.9-4989.79c39.02-200.45 229.06-387.71 423.62-417.38l4840.11-739.24c93.13-14.11 174.2 9.17 228.57 65.97 57.25 59.62 77.96 147.81 58.31 248.81l-971.87 4989.8c-39.05 200.44-229.09 387.7-423.65 417.4l-4840.11 739.11c-17.78 2.75-35.1 4.09-51.93 4.09z" style="fill:url(#d);fill-rule:nonzero"/><path d="M8000.99 1116.98c-7.23 0-14.53 0-21.94.7l-4886.12 324.14c-189.72 12.59-388.44 182.14-443.01 377.96L1246.85 6856.99c-26.95 96.73-13.87 187.33 35.84 248.46 45.79 56.3 118.78 84.1 204.89 78.39l4886.12-324.2c189.72-12.56 388.48-182.14 443.02-377.97l1403.06-5037.21c26.96-96.73 13.87-187.29-35.84-248.42-41.84-51.55-106.26-79.06-182.95-79.06zM1465.57 7201.87c-81.98 0-151.06-29.92-196.28-85.52-53.31-65.54-67.56-161.78-39.09-263.98l1403.07-5037.24c56.37-202.32 262.04-377.55 458.5-390.56l4886.11-324.17c92.11-6 170.04 23.99 219.47 84.73 53.3 65.55 67.55 161.75 39.08 263.99L6833.37 6486.33c-56.38 202.31-262.05 377.54-458.51 390.59l-4886.11 324.17c-7.83.53-15.56.78-23.18.78z" style="fill:url(#e);fill-rule:nonzero"/><path d="M3327.92 1221.05c-188.14 0-396.28 154.8-466.76 348.47L1024.42 6616.68c-35.98 98.81-30.05 194.27 16.23 261.9 40.96 59.87 110.17 93.84 194.94 95.67l4895.78 106.08c190.43 4.2 402.66-152.15 474.1-348.36l1836.74-5047.2c35.98-98.77 30.06-194.27-16.23-261.9-40.96-59.86-110.17-93.84-194.94-95.67l-4895.75-106.05c-2.47-.07-4.94-.1-7.37-.1zm2810.72 5876.92c-2.57 0-5.11-.03-7.65-.1l-4895.78-106.08c-90.56-1.94-164.82-38.63-209.06-103.3-49.49-72.35-56.16-173.6-18.24-277.81l1836.77-5047.19c72.82-200.1 288.33-359.98 483.31-359.98 2.58 0 5.12 0 7.66.08l4895.78 106.08c90.55 1.97 164.81 38.62 209.05 103.29 49.5 72.39 56.16 173.64 18.24 277.81l-8.25-3 8.25 3-1836.77 5047.19c-72.82 200.1-288.36 360.01-483.31 360.01z" style="fill:url(#f);fill-rule:nonzero"/><path d="M3557.51 1014.32c-180.02 0-381.78 135.11-464.08 317.11L823.76 6349.87c-45.22 100.01-46.98 199.85-4.87 274 35.99 63.22 101.29 103.16 183.98 112.51l4867.91 548.81c188.77 21.31 414.23-120.08 502.42-315.17l2269.67-5018.44c45.19-99.98 46.99-199.85 4.83-273.97-35.94-63.22-101.24-103.18-183.94-112.5l-4867.87-549.03c-12.63-1.05-25.47-1.76-38.38-1.76zm2351.23 6290.8c-13.48 0-26.78-.74-39.97-2.22l-4867.88-548.82c-88.51-9.98-158.61-53.09-197.45-121.42-45-79.13-43.51-184.89 4.09-290.13L3077.2 1324.09c91.16-201.47 324.7-347.52 520.67-325.65l4867.91 548.93c88.47 9.98 158.6 53.13 197.41 121.46 45.01 79.13 43.5 184.85-4.09 290.09l-8.12-3.67 8.12 3.67-2269.63 5018.47c-85.06 188-294.04 327.73-480.73 327.73z" style="fill:url(#g);fill-rule:nonzero"/><path d="M3802.72 822.06c-171.76 0-365.19 117.12-457.16 285.75l-2698.41 4950c-54.61 100.19-64.56 203.8-27.33 284.34 30.75 66.49 91.82 112.29 171.98 129.01L5593.32 7472.2c186.09 38.77 422.91-86.11 527.75-278.52l2698.4-4950.04 7.94 4.34-7.94-4.34c54.61-100.15 64.56-203.8 27.34-284.3-30.73-66.5-91.83-112.32-171.98-129.05L3873.31 829.11c-22.89-4.58-46.53-7.05-70.59-7.05zm1860.59 6675.22c-25.12 0-49.78-2.4-73.7-7.37L788.1 6488.87c-85.9-17.89-151.51-67.31-184.7-139.14-39.66-85.76-29.51-195.33 27.86-300.57l2698.39-4950.17c108.44-198.62 353.98-327.73 547.37-287.52l4801.52 1001.12c85.9 17.92 151.48 67.34 184.71 139.17 39.65 85.76 29.49 195.29-27.87 300.56l-2698.4 4950.04c-95.03 174.31-295.41 294.92-473.67 294.92z" style="fill:url(#h);fill-rule:nonzero"/><path d="M4061.87 647.08c-163.05 0-346.39 99.48-445.62 253.65L496.67 5742c-63.94 99.24-82.56 205.88-51.06 292.59 25.31 69.64 81.8 121.22 159.05 145.24l4696.03 1459.48c181.86 56.55 428.48-50.48 549.7-238.58l3119.58-4841.24 7.69 4.97-7.69-4.97c63.92-99.24 82.55-205.92 51.04-292.6-25.29-69.67-81.81-121.25-159.06-145.24L4165.94 662.25c-32.91-10.23-68.01-15.17-104.07-15.17zm1342.18 7025.6c-37.67 0-74.36-5.11-108.83-15.84L599.21 6197.37c-82.87-25.76-143.55-81.32-170.87-156.5-33.48-92.14-14.21-204.71 52.89-308.85L3600.79 890.85c125.38-194.74 381.25-305.16 570.62-246.24l4696 1459.48c82.87 25.78 143.55 81.35 170.85 156.52 33.52 92.15 14.22 204.72-52.88 308.82L5865.84 7410.67c-102.55 159.14-292.45 262.01-461.79 262.01z" style="fill:url(#i);fill-rule:nonzero"/><path d="M4333.37 490.44c-153.74 0-325.47 83.61-429.43 221.9L374.3 5404.11c-73.11 97.16-100.74 205.95-75.8 298.45 19.6 72.74 71.15 130.03 145.17 161.25l4550.95 1920.84c176.18 74.37 430.99-13.37 568.08-195.58l3529.64-4691.69 7.45 5.61-7.45-5.61c73.1-97.19 100.72-205.99 75.78-298.49-19.58-72.74-71.15-130.03-145.17-161.25L4472.01 516.9c-42.54-17.99-89.67-26.46-138.64-26.46zm799.26 7339.16c-51.3 0-100.69-8.93-145.28-27.73L436.42 5881.03c-79.43-33.55-134.8-95.18-155.94-173.6-26.43-98.11 2.33-212.76 78.92-314.54L3889.05 701.05c141.89-188.38 406.68-279.04 590.23-201.43l4550.94 1920.84c79.41 33.51 134.8 95.18 155.93 173.56 26.42 98.11-2.33 212.76-78.92 314.58L5577.62 7600.26c-107.42 142.8-285.29 229.34-444.99 229.34z" style="fill:url(#j);fill-rule:nonzero"/><path d="M4615.49 353.57c-143.69 0-302.51 69.85-408.52 191.2L281.86 5046.08c-81.9 93.91-118.82 203.83-101.3 301.66 13.56 75.77 59.85 138.67 130.29 177.09l4366.2 2381.64c168.91 92.11 430.28 24.9 582.61-149.83l3925.11-4501.23c81.88-93.91 118.82-203.87 101.32-301.66-13.58-75.78-59.87-138.71-130.32-177.13L4789.55 394.84c-51.33-27.87-111.27-41.27-174.06-41.27zm235.16 7612.91c-65.83 0-128.69-13.97-182.63-43.36L301.8 5541.48c-75.62-41.24-125.28-108.87-139.89-190.39-18.53-103.51 19.98-219.22 105.67-317.47l3925.1-4501.19c157.87-180.98 429.72-250.12 605.94-154.17l4366.22 2381.71c75.6 41.28 125.27 108.87 139.88 190.43 18.52 103.47-19.97 219.18-105.66 317.43l-7.16-6.21 7.16 6.21L5273.95 7769.1c-109.57 125.62-274 197.38-423.3 197.38z" style="fill:url(#k);fill-rule:nonzero"/><path d="M4906.49 238.56c-132.78 0-277.63 56.8-383.04 161.22L220.95 4670.05c-90.1 89.46-136.45 199.46-127.17 301.87 7.14 78.74 47.75 147.25 114.35 192.87l4142.03 2838.23c160.02 109.72 426.09 64.17 593.02-101.49L9245.66 3631.4l6.77 6.81-6.77-6.81c90.1-89.43 136.49-199.46 127.18-301.87-7.13-78.74-47.73-147.21-114.34-192.86L5116.47 298.53c-59.02-40.57-132.43-59.97-209.98-59.97zM4559.86 8081.8c-81.36 0-158.51-20.36-220.6-62.9L197.25 5180.66c-71.4-48.93-114.95-122.45-122.61-207.01-9.82-108.13 38.59-223.73 132.78-317.22L4509.9 386.38c173.18-171.81 450.15-218.37 617.47-103.72l4142 2838.13c71.4 48.97 114.97 122.45 122.62 207.01 9.81 108.13-38.59 223.77-132.78 317.25L4956.73 7915.18c-108.9 108.09-258.94 166.62-396.87 166.62z" style="fill:url(#l);fill-rule:nonzero"/><path d="M5204.7 146.49c-121 0-251.25 45.5-353.34 132.99L193.07 4278.43c-97.61 83.82-153.39 192.72-153.06 298.84.26 81.6 34.76 155.65 97.15 208.53l3878.89 3287.04c149.79 126.96 418.6 104.1 599.23-50.94l4658.29-3998.88 6.35 7.41-6.35-7.41c97.57-83.78 153.38-192.72 153.07-298.84-.29-81.6-34.79-155.64-97.16-208.52L5450.58 228.68c-65.12-55.38-152.78-82.19-245.88-82.19zm-942.8 8027.67c-97.72 0-189.87-28.3-258.48-86.4L124.54 4800.68c-66.82-56.62-103.76-135.92-104.05-223.34-.36-111.83 57.93-226.2 159.88-313.73L4838.66 264.67c187.53-160.87 467.74-183.8 624.52-50.8l3878.9 3286.9c66.85 56.62 103.78 135.96 104.07 223.38.35 111.83-57.93 226.16-159.88 313.69L4627.98 8036.71c-105.52 90.56-240.42 137.45-366.08 137.45z" style="fill:url(#m);fill-rule:nonzero"/><path d="M5508.47 78.75c-108.44 0-223.66 35.63-319.96 106.54L199.42 3873.72c-104.25 77.09-169.29 183.66-178.51 292.42-7.12 84.28 20.8 163.87 78.62 224.05l3577.64 3724.35c138.04 143.72 407.63 144.39 600.96 1.48l4989.09-3688.29c104.24-77.05 169.29-183.62 178.5-292.42 7.13-84.28-20.81-163.83-78.6-224.01L5789.46 187.06c-69.28-72.32-171.69-108.31-280.99-108.31zM3958.3 8242.35c-114.69 0-222.43-38.07-295.45-114.09L85.21 4403.91c-61.8-64.34-91.66-149.36-84.03-239.43 9.69-114.47 77.65-226.23 186.46-306.7L5176.72 169.42c201.02-148.52 482.32-146.76 627.03 3.88l3577.66 3724.24c61.81 64.38 91.69 149.4 84.03 239.46-9.66 114.44-77.64 226.24-186.48 306.67l-5.89-7.97 5.89 7.97-4989.05 3688.29c-99.59 73.63-218.97 110.39-331.61 110.39z" style="fill:url(#n);fill-rule:nonzero"/><path d="M5816.13 36.42c-95.25 0-195.3 26.81-283.56 82.55L241.03 3458.68C131.17 3528 57.17 3630.98 37.98 3741.19c-15.08 86.74 5.7 171.69 58.52 239.32l3239.43 4146.41c124.92 159.88 393.24 184.78 598.13 55.49l5291.56-3339.64 5.37 8.54-5.37-8.54c109.86-69.29 183.84-172.26 203.03-282.5 15.1-86.72-5.68-171.74-58.53-239.33L6130.7 174.71C6059.58 83.69 5942 36.42 5816.13 36.42zM3650.78 8285.14c-132.08 0-255.76-49.92-330.73-145.84L80.62 3992.93c-56.34-72.18-78.54-162.77-62.46-255.17 20.16-115.85 97.46-223.76 212.12-296.12l5291.53-3339.6c213.39-134.76 493.64-107.6 624.77 59.97L9386 4308.56c56.37 72.14 78.56 162.77 62.47 255.16-20.18 115.82-97.47 223.73-212.12 296.09L3944.82 8199.42c-91.4 57.71-195.08 85.72-294.04 85.72z" style="fill:url(#o);fill-rule:nonzero"/><path d="M6126.01 20.19c-81.67 0-166.58 20.11-244.93 61.74L318.61 3036.16c-114.34 60.71-196.77 158.82-226.15 269.17-23.65 88.79-10.6 179.07 36.73 254.18L2994.9 8108.93c110.45 175.36 375.42 225.03 590.65 110.73l5562.46-2954.33c114.34-60.75 196.78-158.86 226.17-269.21 23.63-88.76 10.58-179.03-36.73-254.17L6471.73 192.7c-70.27-111.83-203.02-172.51-345.72-172.51zM3340.94 8301.44c-149.69 0-289.28-64.07-363.33-181.65L111.89 3570.41c-50.38-80.01-64.3-176-39.18-270.34 30.84-115.81 116.97-218.58 236.32-281.97L5871.52 63.58c224.4-118.88 501.44-66.32 617.5 118.18l2865.72 4549.32c50.38 79.98 64.31 175.97 39.19 270.3-30.86 115.82-116.98 218.62-236.32 281.97l-4.8-8.99 4.8 8.99-5562.46 2954.38c-81.21 43.11-169.33 63.71-254.21 63.71z" style="fill:url(#p);fill-rule:nonzero"/><path d="M6436.28 31.83c-67.84 0-137.87 13.76-204.75 43.04L432.73 2609.19c-117.67 51.44-207.88 143.48-247.45 252.56-32.78 90.27-28.11 185.56 13.14 268.28l2458.3 4929.76c94.76 190 354.19 264.83 578.38 166.82l5798.79-2534.35c117.69-51.44 207.89-143.48 247.47-252.52 32.78-90.31 28.08-185.6-13.16-268.32L6809.91 241.74c-66.47-133.35-214.07-209.91-373.63-209.91zM3030.63 8290.36c-167.35 0-322.43-80.86-392.46-221.3L179.85 3139.28c-43.8-87.84-48.81-188.92-14.08-284.62 41.51-114.37 135.78-210.79 258.65-264.48L6223.2 55.82c234.14-102.3 505.67-23.28 605.26 176.74l2458.3 4929.62c43.82 87.84 48.82 188.94 14.11 284.62-41.52 114.4-135.78 210.78-258.66 264.51l-4.16-9.53 4.16 9.53-5798.78 2534.32c-69.46 30.37-142.24 44.73-212.8 44.73z" style="fill:url(#q);fill-rule:nonzero"/><path d="M6744.96 71.34c-54.04 0-109.43 9.18-163.76 27.87L583.58 2180.96c-119.81 41.59-216.93 126.47-266.47 232.83-42.45 91.12-46.8 191.03-12.28 281.37l2019.3 5283.77c77.78 203.55 329.56 303.74 561.3 223.31L8883.04 6120.5c119.8-41.6 216.92-126.44 266.49-232.8 42.44-91.12 46.78-191.07 12.28-281.41L7142.51 322.52c-59.55-155.93-221.12-251.18-397.55-251.18zM2721.88 8251.06c-185.03 0-354.72-100.43-417.44-264.58L285.17 2702.68c-36.59-95.71-32.02-201.47 12.84-297.78 51.92-111.51 153.5-200.41 278.67-243.84L6574.29 79.46c242.32-84.32 506.06 21.52 587.9 235.65l2019.3 5283.7c36.58 95.67 32 201.43-12.88 297.78-51.92 111.51-153.49 200.38-278.65 243.8l-3.46-9.95 3.46 9.95-5997.61 2081.74c-56.52 19.65-114.23 28.93-170.47 28.93z" style="fill:url(#r);fill-rule:nonzero"/><path d="M7049.83 139.78c-40.29 0-81.42 5.3-122.41 15.88L771.17 1754.73c-120.77 31.36-223.9 108.02-282.92 210.29-52.56 91.09-66.61 195.16-39.53 293.05l1551.1 5607.9c59.76 216.04 301.87 341.59 539.39 279.82l6156.22-1599.07c120.8-31.36 223.91-108.02 282.93-210.29 52.57-91.09 66.61-195.16 39.55-293.05L7466.81 435.41c-49.45-178.5-223.69-295.63-416.98-295.63zM2416.87 8182.94c-202.7 0-385.62-123.05-437.65-311.26L428.11 2263.79c-28.62-103.47-13.83-213.36 41.62-309.46 61.87-107.21 169.78-187.5 296.05-220.31L6922.02 134.84c248.99-64.55 502.57 67.74 565.4 294.93l1551.09 5607.89c28.61 103.47 13.83 213.36-41.59 309.46-61.88 107.21-169.79 187.5-296.09 220.31l-2.68-10.34 2.68 10.34-6156.22 1599.11c-42.75 11.07-85.69 16.4-127.74 16.4z" style="fill:url(#s);fill-rule:nonzero"/><path d="M7348.56 237.86c-26.77 0-53.9 2.11-81.24 6.7L995.18 1333.87c-122.38 21.23-227.7 87.1-296.55 185.42-63.01 89.99-87.32 197.52-68.47 302.79l1056.43 5898.69c40.71 227.29 270.72 377.93 512.72 335.95l6272.18-1089.1 1.87 10.69-1.87-10.69c122.34-21.27 227.65-87.1 296.51-185.45 63.01-89.96 87.31-197.52 68.47-302.79L7780.05 580.76c-36.09-201.79-221.23-342.9-431.49-342.9zM2118.1 8085.47c-220.62 0-414.9-148.73-452.89-360.86L608.77 1825.92c-19.88-111.02 5.72-224.33 72.06-319.09 72.19-103.11 182.51-172.15 310.61-194.38L7263.61 223.39c253.86-44.1 495.02 114.65 537.81 353.49l1056.43 5898.69c19.9 110.98-5.71 224.29-72.07 319.08-72.14 103.09-182.49 172.12-310.59 194.35L2203.02 8078.13c-28.54 4.94-56.94 7.34-84.92 7.34z" style="fill:url(#t);fill-rule:nonzero"/><path d="M7638.97 364.86c-13.55 0-27.16.7-40.82 1.76L1254.93 921.54c-118.57 10.58-226.1 65.26-302.79 153.81-76.63 88.55-113.28 200.41-103.22 315.21l538.3 6152.94c10.05 114.79 65.58 218.72 156.39 292.59 90.91 73.98 206.37 109.01 324.87 98.6l6343.23-554.95c244.61-21.42 426.75-231.71 406.04-468.85l-538.3-6153.04c-10.06-114.65-65.62-218.72-156.42-292.45-80.47-65.62-180.06-100.54-284.06-100.54zM1827.63 7958.54c-109.05 0-213.54-36.69-297.92-105.34-95.5-77.68-153.89-186.97-164.47-307.8l-538.3-6152.9c-10.59-120.79 27.94-238.48 108.51-331.61 80.47-93.14 193.25-150.29 317.57-161.22l6343.23-554.92c124.32-10.94 245.29 25.75 340.68 103.36 95.49 77.97 153.91 186.97 164.46 307.98l538.34 6152.9c21.77 249.2-169.37 470.25-426.12 492.72l-6343.23 554.96c-14.28 1.23-28.57 1.87-42.75 1.87z" style="fill:url(#u);fill-rule:nonzero"/><path d="M1549.6 521.84c-245.5 0-445.2 199.67-445.2 445.21v6367.42c0 245.47 199.7 445.18 445.2 445.18h6367.43c245.5 0 445.17-199.71 445.17-445.18V967.05c0-245.54-199.67-445.21-445.17-445.21H1549.6zm6367.43 7280.21H1549.6c-257.81 0-467.57-209.77-467.57-467.58V967.05c0-257.88 209.76-467.79 467.57-467.79h6367.43c257.81 0 467.57 209.91 467.57 467.79v6367.42c0 257.81-209.76 467.58-467.57 467.58z" style="fill:url(#a);fill-rule:nonzero"/></svg>