<svg xmlns="http://www.w3.org/2000/svg" xml:space="preserve" style="shape-rendering:geometricPrecision;text-rendering:geometricPrecision;image-rendering:optimizeQuality;fill-rule:evenodd;clip-rule:evenodd" viewBox="0 0 9120.56 7991.01" xmlns:xlink="http://www.w3.org/1999/xlink"><defs><linearGradient id="a" gradientUnits="userSpaceOnUse" x1="330.19" y1="4129.59" x2="8610.98" y2="4129.59"><stop offset="0" style="stop-opacity:1;stop-color:#f9bb00"/><stop offset="1" style="stop-opacity:1;stop-color:#fdeab0"/></linearGradient><linearGradient id="e" gradientUnits="userSpaceOnUse" xlink:href="#a" x1="798.62" y1="4270.23" x2="7954.39" y2="4270.23"/><linearGradient id="j" gradientUnits="userSpaceOnUse" xlink:href="#a" x1="107.28" y1="4043.11" x2="8949.61" y2="4043.11"/><linearGradient id="k" gradientUnits="userSpaceOnUse" xlink:href="#a" x1="0" y1="3995.51" x2="9120.56" y2="3995.51"/><linearGradient id="b" gradientUnits="userSpaceOnUse" xlink:href="#a" x1="1159.24" y1="4349.96" x2="7525.01" y2="4349.96"/><linearGradient id="c" gradientUnits="userSpaceOnUse" xlink:href="#a" x1="1038.74" y1="4325.68" x2="7640.05" y2="4325.68"/><linearGradient id="f" gradientUnits="userSpaceOnUse" xlink:href="#a" x1="679.53" y1="4238.91" x2="8115.35" y2="4238.91"/><linearGradient id="i" gradientUnits="userSpaceOnUse" xlink:href="#a" x1="217.47" y1="4087.76" x2="8779.66" y2="4087.76"/><linearGradient id="h" gradientUnits="userSpaceOnUse" xlink:href="#a" x1="445" y1="4168.67" x2="8443.89" y2="4168.67"/><linearGradient id="g" gradientUnits="userSpaceOnUse" xlink:href="#a" x1="561.57" y1="4205.08" x2="8278.58" y2="4205.08"/><linearGradient id="d" gradientUnits="userSpaceOnUse" xlink:href="#a" x1="918.42" y1="4299.11" x2="7795.86" y2="4299.11"/></defs><path d="M1187.64 4490.51 3621.21 7449.6l3878.64-1411.7-37.82-3831.06-3901.15-957.16-2373.24 3240.83zm2429.55 2986.43c-3.67 0-7.27-1.62-9.7-4.58L1162.1 4498.94c-3.63-4.41-3.81-10.76-.46-15.38l2383.97-3255.47c3-4.09 8.15-5.96 13.09-4.76l3918.78 961.46a12.6 12.6 0 0 1 9.56 12.07L7525 6046.51c.07 5.33-3.24 10.09-8.25 11.92L3621.46 7476.2c-1.38.5-2.83.74-4.27.74z" style="fill:url(#b);fill-rule:nonzero"/><path d="M1067.17 4384.19 3468.39 7520.9l4047.44-1315.08 98.88-3949.06-3985.49-1126.63-2562.05 3254.06zM3463.8 7548.13c-3.81 0-7.51-1.76-9.95-4.94L1041.31 4391.7a12.549 12.549 0 0 1 .14-15.38l2573.27-3268.31c3.1-4.02 8.36-5.72 13.26-4.31l4002.93 1131.57c5.5 1.56 9.27 6.64 9.13 12.39l-99.37 3967.65c-.14 5.33-3.6 9.99-8.68 11.65L3467.68 7547.5c-1.27.42-2.57.63-3.88.63z" style="fill:url(#c);fill-rule:nonzero"/><path d="M946.84 4270.27 3308.3 7588.91l4217.9-1209.48 244.02-4065.77-4066.21-1304.32L946.84 4270.27zm2356.38 3345.67c-3.99 0-7.8-1.91-10.2-5.26L920.73 4276.87a12.56 12.56 0 0 1 .67-15.38L3690.28 986.72c3.25-3.88 8.58-5.39 13.37-3.84l4083.5 1309.9c5.47 1.73 9.03 6.98 8.68 12.7L7550.72 6389.8c-.32 5.29-3.95 9.84-9.07 11.29L3306.67 7615.44c-1.16.32-2.29.5-3.45.5z" style="fill:url(#d);fill-rule:nonzero"/><path d="m827 4148.57 2313.9 3504.59 4389.78-1094.49 397.76-4180.73L3785.39 887.59 827 4148.57zm2308.33 3531.47c-4.13 0-8.12-2.08-10.48-5.65L800.68 4154.24c-3.14-4.79-2.65-11.11 1.2-15.34L3772.45 864.52c3.42-3.74 8.78-5.11 13.51-3.35l4160.12 1496.48c5.4 1.94 8.78 7.27 8.25 12.99l-399.52 4199.25c-.53 5.29-4.3 9.7-9.45 10.97l-4407 1098.79c-.99.25-2.04.39-3.03.39z" style="fill:url(#e);fill-rule:nonzero"/><path d="M707.86 4018.81 2966.1 7713.37l4562.68-969.81 560.31-4293.69-4215.47-1684.8L707.86 4018.81zm2252.17 3721.2c-4.3 0-8.39-2.22-10.69-6L681.37 4023.58c-3-4.91-2.26-11.19 1.73-15.31L3861.49 741.58c3.52-3.64 8.89-4.76 13.65-2.89l4232.3 1691.49c5.33 2.16 8.54 7.59 7.8 13.3l-562.72 4312.11c-.67 5.26-4.62 9.53-9.84 10.66l-4580.04 973.48c-.88.21-1.72.28-2.61.28z" style="fill:url(#f);fill-rule:nonzero"/><path d="m589.83 3880.84 2194.03 3888.24 4736.38-835.13 731.84-4404.18-4283.1-1887.71L589.83 3880.84zM2777.26 7795.5c-4.45 0-8.64-2.36-10.9-6.35L563.19 3884.69c-2.82-5.01-1.87-11.26 2.26-15.24L3957.69 618.11c3.63-3.5 9.1-4.45 13.72-2.4l4299.68 1895.01c5.26 2.33 8.26 7.91 7.31 13.55l-734.88 4422.52c-.88 5.25-4.94 9.38-10.19 10.3l-4753.88 838.23c-.74.15-1.45.18-2.19.18z" style="fill:url(#g);fill-rule:nonzero"/><path d="m473.16 3734.4 2120.83 4085.55 4910.52-690.14 912.6-4511.84L4071.64 518.69 473.16 3734.4zm2113.81 4111.72c-4.62 0-8.96-2.54-11.11-6.73L446.42 3737.33c-2.64-5.08-1.52-11.32 2.75-15.13L4061.19 494.42c3.78-3.42 9.25-4.16 13.8-1.97l4361.8 2107.17c5.15 2.51 7.98 8.15 6.85 13.76L7527.33 7143.5c-1.02 5.18-5.26 9.17-10.55 9.91L2588.7 7846.02c-.57.07-1.17.1-1.73.1z" style="fill:url(#h);fill-rule:nonzero"/><path d="m358.23 3579.36 2038.38 4286.13 5084.65-534.42 1102.71-4616.3L4181.88 395.29 358.23 3579.36zM2389.1 7891.42c-4.8 0-9.25-2.75-11.33-7.12L331.42 3581.33a12.544 12.544 0 0 1 3.28-15.02L4172.28 370.67c3.92-3.28 9.35-3.81 13.87-1.48l4418.14 2327.94c5.08 2.68 7.66 8.43 6.35 14.01L7503.62 7345.53c-1.23 5.19-5.6 9-10.9 9.56l-5102.28 536.26c-.46.04-.92.07-1.34.07z" style="fill:url(#a);fill-rule:nonzero"/><path d="m245.41 3415.42 1946.17 4489.9 5258.49-367.73 1302.35-4717.02-4452.5-2548.43L245.41 3415.42zm1938.16 4515.55c-4.97 0-9.49-2.93-11.5-7.55L218.53 3416.48a12.46 12.46 0 0 1 3.81-14.89L4291.17 247.16c4.06-3.1 9.52-3.49 13.9-.95l4468.27 2557.43c4.98 2.85 7.38 8.71 5.86 14.21L7471.87 7552.83c-1.41 5.11-5.92 8.81-11.18 9.17l-5276.24 368.93c-.28.04-.56.04-.88.04z" style="fill:url(#i);fill-rule:nonzero"/><path d="m135.06 3242.46 1843.83 4696.48 5431.6-189.69 1511.69-4813.64L4426 149.48 135.06 3242.46zm1835.4 4721.88c-5.15 0-9.78-3.14-11.68-7.97L108.14 3242.56c-2.08-5.29-.28-11.39 4.34-14.74l4305.65-3103.6c4.13-2.93 9.64-3.14 13.94-.46l4511.59 2795.66c4.87 3.03 7.09 8.96 5.37 14.43l-1517.3 4831.42a12.579 12.579 0 0 1-11.5 8.78l-5449.35 190.29h-.42z" style="fill:url(#j);fill-rule:nonzero"/><path d="M1758.51 7965.93h5603.54l1730.91-4905.65L4560.27 27.66 27.64 3060.28l1730.87 4905.65zm5612.4 25.08H1749.62a12.51 12.51 0 0 1-11.82-8.36L.72 3059.43c-1.9-5.39.11-11.39 4.87-14.6L4553.28 2.12c4.24-2.82 9.78-2.82 13.97 0l4547.76 3042.71c4.72 3.21 6.74 9.21 4.83 14.6L7382.76 7982.65c-1.76 5.01-6.52 8.36-11.85 8.36z" style="fill:url(#k);fill-rule:nonzero"/></svg>