<svg xmlns="http://www.w3.org/2000/svg" xml:space="preserve" style="shape-rendering:geometricPrecision;text-rendering:geometricPrecision;image-rendering:optimizeQuality;fill-rule:evenodd;clip-rule:evenodd" viewBox="0 0 8338.19 8522.02" xmlns:xlink="http://www.w3.org/1999/xlink"><defs><linearGradient id="a" gradientUnits="userSpaceOnUse" x1="954.49" y1="4217.36" x2="7252.76" y2="4217.36"><stop offset="0" style="stop-opacity:1;stop-color:#0097cf"/><stop offset="1" style="stop-opacity:1;stop-color:#0097cf"/></linearGradient><linearGradient id="i" gradientUnits="userSpaceOnUse" xlink:href="#a" x1="578.88" y1="4383.2" x2="7752.85" y2="4383.2"/><linearGradient id="j" gradientUnits="userSpaceOnUse" xlink:href="#a" x1="469.35" y1="4465.72" x2="7898.05" y2="4465.72"/><linearGradient id="m" gradientUnits="userSpaceOnUse" xlink:href="#a" x1="203.64" y1="4823.6" x2="8224.73" y2="4823.6"/><linearGradient id="f" gradientUnits="userSpaceOnUse" xlink:href="#a" x1="1088.82" y1="4182.77" x2="7076.04" y2="4182.77"/><linearGradient id="p" gradientUnits="userSpaceOnUse" xlink:href="#a" x1="45.08" y1="4576.25" x2="8338.19" y2="4576.25"/><linearGradient id="e" gradientUnits="userSpaceOnUse" xlink:href="#a" x1="1228.97" y1="4156.37" x2="6897.15" y2="4156.37"/><linearGradient id="n" gradientUnits="userSpaceOnUse" xlink:href="#a" x1="138.69" y1="4800.07" x2="8288.78" y2="4800.07"/><linearGradient id="s" gradientUnits="userSpaceOnUse" xlink:href="#a" x1="0" y1="4340.57" x2="8179.23" y2="4340.57"/><linearGradient id="h" gradientUnits="userSpaceOnUse" xlink:href="#a" x1="697.11" y1="4316.07" x2="7593.53" y2="4316.07"/><linearGradient id="b" gradientUnits="userSpaceOnUse" xlink:href="#a" x1="1657.47" y1="4114.25" x2="6362.12" y2="4114.25"/><linearGradient id="k" gradientUnits="userSpaceOnUse" xlink:href="#a" x1="369.64" y1="4565.29" x2="8026.62" y2="4565.29"/><linearGradient id="d" gradientUnits="userSpaceOnUse" xlink:href="#a" x1="1371.34" y1="4137" x2="6717.57" y2="4137"/><linearGradient id="g" gradientUnits="userSpaceOnUse" xlink:href="#a" x1="822.73" y1="4261.01" x2="7425.76" y2="4261.01"/><linearGradient id="u" gradientUnits="userSpaceOnUse" xlink:href="#a" x1="11.77" y1="4261.01" x2="7898.64" y2="4261.01"/><linearGradient id="o" gradientUnits="userSpaceOnUse" xlink:href="#a" x1="84.05" y1="4682.56" x2="8327.55" y2="4682.56"/><linearGradient id="c" gradientUnits="userSpaceOnUse" xlink:href="#a" x1="1514.57" y1="4122.54" x2="6538.74" y2="4122.54"/><linearGradient id="r" gradientUnits="userSpaceOnUse" xlink:href="#a" x1="4.22" y1="4403.85" x2="8265.34" y2="4403.85"/><linearGradient id="t" gradientUnits="userSpaceOnUse" xlink:href="#a" x1="3.64" y1="4292.82" x2="8057.42" y2="4292.82"/><linearGradient id="q" gradientUnits="userSpaceOnUse" xlink:href="#a" x1="18.75" y1="4482.27" x2="8318.56" y2="4482.27"/><linearGradient id="l" gradientUnits="userSpaceOnUse" xlink:href="#a" x1="280.82" y1="4683.36" x2="8136.31" y2="4683.36"/></defs><path d="M1724.29 5694.54c-66.53 324.91-19.08 562.3 137.37 686.69 200.95 159.73 572.49 126.89 1046.27-92.5 1133.51-524.9 2545.33-1954.53 3147.19-3186.93 306-626.57 354.62-1110.86 133.39-1328.63-19.51-19.19-49.11-27.52-88.23-24.66-184.54 13.37-504.46 255.27-728.37 550.69L4213.49 3827.85c-120.75 159.32-276.43 311.44-427.14 417.38L1724.29 5694.54zm473.01 823.63c-147.25 0-268.71-35.66-359.06-107.49-169.51-134.79-221.12-387.59-149.26-731.06l1.52-7.27 2074.19-1457.89c147.67-103.82 300.32-253.01 418.82-409.36l1158.41-1528.62c229.66-303.04 561.58-551.46 755.64-565.5 50.2-3.67 89.79 8.22 117.37 35.38 233.47 229.87 187.54 729.9-126.01 1371.95-605.11 1239.03-2024.97 2676.56-3165.15 3204.57-280.38 129.82-527.05 195.29-726.47 195.29z" style="fill:url(#b);fill-rule:nonzero"/><path d="M1608.16 5600.39c-99.45 362.62-66.15 631.68 96.52 778.44 191.52 172.79 557.32 165.84 1030.07-19.65 1174.9-461.01 2706.02-1875.41 3413.05-3153.03 360.08-650.55 450.67-1171.43 248.57-1429.1-17.78-22.68-46.61-34.46-85.59-35.06-183.79-1.94-524.26 228.88-772.75 527.26L4250.78 3814.77l-14.46-12.03 14.46 12.03c-134.09 160.97-302.4 310.94-461.85 411.41L1608.16 5600.39zm486.97 940.36c-175.36 0-316.65-44.63-415.64-133.98-175.05-157.91-211.56-442.63-105.62-823.49l1.94-6.99 2193.08-1381.97c156.21-98.42 321.31-245.57 452.96-403.65l1287.29-1545.48c254.94-306.14 605.18-544.27 802.21-540.81 50.9.74 89.46 17.39 114.61 49.42 211.88 270.16 122.49 806.17-245.25 1470.59-710.66 1284.11-2250.36 2706.09-3432.2 3169.82-248.92 97.65-469.83 146.54-653.38 146.54z" style="fill:url(#c);fill-rule:nonzero"/><path d="M1500.77 5487.29c-137.05 401.46-120.65 704.42 47.56 876.37 181.71 185.7 539.57 205.38 1007.81 55.38 1210.52-387.84 2859.09-1774.43 3674.88-3091 415.96-671.27 551.64-1227.84 372.18-1526.93-16.09-26.85-44.38-42.47-84-46.46-183.41-18.41-541.23 200.24-813.07 497.91L4289.06 3804.11l-13.87-12.7 13.87 12.7c-147.57 161.58-328.33 308.01-495.87 401.64L1500.77 5487.29zm499.71 1070.68c-207.64 0-369.6-56.17-479.03-168-179.81-183.79-198.44-502.49-53.94-921.7l2.36-6.77 2304.94-1288.56c164.19-91.79 341.49-235.48 486.48-394.23l1417.08-1551.55c278.93-305.43 649.91-529.41 844.57-509.94 52.14 5.22 90 26.92 112.54 64.52 186.94 311.61 51.15 882.44-372.46 1566.13-819.85 1323.02-2477.59 2716.84-3695.45 3106.98-214.7 68.79-404.84 103.12-567.09 103.12z" style="fill:url(#d);fill-rule:nonzero"/><path d="M1403.65 5354.64c-179.42 440.87-182.98 779.61-10.26 979.95 173.85 201.54 512.58 247.33 979.59 132.32 1239.7-305.25 3002.77-1650.57 3930.25-2998.92 473.47-688.31 657.19-1279.14 504.05-1621.02-14.29-31.82-42.3-51.79-83.32-59.33-182.6-33.62-555.56 169.58-848.86 462.7l-1546.92 1545.8-13.3-13.3 13.3 13.3c-161.08 160.97-353.91 302.4-529.02 387.99L1403.65 5354.64zm517.39 1211.65c-248.71 0-437.48-69.53-556.12-207.15-183.48-212.76-181.19-567.34 6.63-1025.38l2.72-6.63 2408.38-1176.84c171.52-83.78 360.68-222.6 518.93-380.75L5848.5 2223.7c306.21-305.96 685.63-509.3 882.3-473.07 53.16 9.81 91.44 37.78 110.81 80.96 158.64 354.15-26.32 958.36-507.37 1657.7-931.96 1354.88-2704.91 2707.01-3952.23 3014.14-170.53 41.98-324.77 62.86-460.97 62.86z" style="fill:url(#e);fill-rule:nonzero"/><path d="M1318.53 5201.82c-223.24 473.21-250.93 859.65-77.82 1088.6 162.63 215.05 489.62 288.01 945.83 210.96 1261.39-213.08 3134.92-1502.8 4176.42-2875 532.16-701.14 766.76-1324.43 643.71-1710.12-12.06-37.75-40-62.76-83.11-74.3-180.55-48.36-567.27 136.99-879.97 421.96L4367.87 3791.2c-174.52 159.1-378.96 293.97-560.92 370.03L1318.53 5201.82zm541.12 1366.91c-299.57 0-520.94-86.36-648.93-255.63-185.46-245.21-158.86-637.32 76.9-1133.93l3.07-6.49 2501.76-1046.16c178.12-74.47 378.6-206.84 550.09-363.12l12.66 13.9-12.66-13.9 1675.72-1527.28c326.53-297.6 719.77-482.77 915-430.49 55.53 14.85 93.27 49.14 109.25 99.2 126.86 397.51-109.92 1033.28-649.57 1744.31-1046.5 1378.76-2930.65 2674.9-4200.12 2889.32-119.74 20.25-231 30.27-333.17 30.27z" style="fill:url(#f);fill-rule:nonzero"/><path d="M1247.06 5028.22c-274.15 510.75-329.57 937.33-155.9 1201.56 150.57 229.13 464.19 329.81 906.71 291.25 1274.98-111.23 3253.6-1330.22 4410.74-2717.41 591.68-709.37 879.93-1362.92 790.75-1793.14-9.28-44.83-37.25-75.7-83.19-91.79-181.43-63.53-570.86 98.04-905.86 375.92L4407.87 3789.65c-187.78 155.72-403.22 282.4-591.18 347.56l-2569.63 891.01zm573.75 1538.46c-362.93 0-624.13-107.88-761.08-316.23-182.39-277.46-126.36-720.16 157.69-1246.54l3.49-6.42 2583.43-895.81c183.87-63.75 395.08-188.03 579.51-340.99l1802.47-1495.04c344.31-285.61 749.55-450.07 942.27-382.48 58.42 20.49 95.64 61.87 107.63 119.66 91.48 441.54-199.63 1106.7-798.72 1824.88C5274.83 5221.5 3284.7 6446.52 2001.15 6558.5c-62.61 5.46-122.76 8.18-180.34 8.18z" style="fill:url(#a);fill-rule:nonzero"/><path d="M1191.03 4833.48c-329.24 546.21-416.38 1013.96-245.35 1317.59 137.51 244.13 435.82 373.21 862.68 373.35h.64c1279.59 0 3356.18-1132.31 4629.59-2524.55 651.69-712.47 995.97-1393.65 944.53-1868.81-5.71-53.02-33.69-90.77-83.15-112.21-178.86-77.54-576.97 62.16-926.22 324.76L4447.84 3791.73l-11.29-15.06 11.29 15.06c-200.62 150.85-426.43 267.65-619.44 320.43l-2637.37 721.32zM1809 6562.02h-.64c-441.25-.14-750.89-135.82-895.46-392.46-178.68-317.22-89.95-800.88 249.81-1361.97l3.91-6.42 2651.83-725.28c188.63-51.61 409.79-166.12 606.78-314.25L6351.1 2313.56c365.2-274.61 770.47-413.07 963.83-329.22 61.91 26.82 98.42 76.17 105.62 142.67 52.56 485.88-295.2 1177.78-954.19 1898.26C5186.84 5424.17 3097.73 6562.02 1809 6562.02z" style="fill:url(#g);fill-rule:nonzero"/><path d="M1152.16 4617.34c-387.74 578.3-510.93 1087.75-346.78 1435.03 123.08 260.38 404.56 418.71 814.03 457.76 1273.95 121.64 3441.91-907.87 4831.95-2294.85 711.66-710.15 1114.22-1415.74 1104.38-1935.94-1.2-62.48-29-108.24-82.63-136.03-175.71-91.09-580.21 24.48-940.85 268.85l-2044.8 1385.57-10.55-15.56 10.55 15.56c-213.08 144.39-448.31 249.55-645.34 288.46l-2689.96 531.15zm679.1 1940.1c-74.33 0-146.05-3.21-215.41-9.84-423.37-40.4-715.43-206.1-844.48-479.18-170.64-361-44.94-886.11 353.91-1478.53l4.34-6.46 2705.2-534.17c192.27-37.96 422.45-140.97 631.51-282.65l2044.83-1385.6c377.3-255.63 789.09-369.64 979.28-271.11 65.86 34.15 101.45 92.5 102.9 168.73 10.02 530.37-396.52 1245.94-1115.45 1963.28-1321.42 1318.58-3344.88 2315.42-4646.63 2315.53z" style="fill:url(#h);fill-rule:nonzero"/><path d="M1132.3 4379.63c-448.88 605.9-612.5 1156.69-460.77 1551.63 106.97 278.52 370.14 467.18 761.05 545.53 1258.57 252.34 3507.25-657.05 5012.68-2027.06 771.21-701.81 1233.91-1428.29 1269.51-1993.19 4.58-73.17-22.72-128.24-81.18-163.66-175.22-106.15-574.5-18.48-949.43 208.53L4526.41 3808.03c-224.97 136.24-468.63 227.82-668.45 251.32L1132.3 4379.63zm757.45 2176.57c-165.92 0-321.46-13.83-464.58-42.51-404.17-81.03-676.94-277.77-788.77-568.96-157.06-408.8 10.09-974.9 470.53-1594.06l4.84-6.49 2741.78-322.19c194.7-22.9 432.86-112.61 653.35-246.13l2157.79-1306.62c392.39-237.6 798.72-323.36 988.41-208.53 70.38 42.62 104.67 111.16 99.17 198.19-36.16 574.53-503.31 1310.32-1281.68 2018.67C5128.03 5699.34 3194.81 6556.2 1889.75 6556.2z" style="fill:url(#i);fill-rule:nonzero"/><path d="M1133.18 4120.38C621.9 4747.79 413.3 5338.66 545.7 5784.89c88.72 299.08 332.07 519.71 703.75 638.14 1231.52 392.32 3550.4-379.27 5169.28-1719.97 829.74-687.17 1354.18-1430.44 1438.95-2039.34 11.89-85.19-14.5-150.95-78.35-195.51-171.45-119.59-571.65-58.95-951.62 144.25L4564.3 3822.88l-8.89-16.58 8.89 16.58c-236.12 126.26-487.01 202.42-688.34 208.92l-2742.78 88.58zm857.5 2441.96c-278.59 0-532.63-33.34-752.62-103.47-384.14-122.38-636.02-351.72-728.42-663.26-136.52-460.12 76.52-1065.84 599.83-1705.64l5.4-6.63 2759.85-89.15c195.76-6.32 440.62-80.86 671.83-204.47L6810 2579.27c398-212.83 805.46-271.22 990.85-141.92 75.35 52.56 107.87 132.64 94.12 231.56-86.08 618.07-615.35 1370.05-1452.25 2063.11-1339.38 1109.21-3157.84 1830.32-4452.04 1830.32z" style="fill:url(#j);fill-rule:nonzero"/><path d="M1156.64 3839.81c-573.44 641.5-831.39 1269.83-726.51 1770.03 67.63 322.69 289.56 577.78 641.74 737.69 1192.03 541.27 3568.98-74.5 5298.36-1372.69C7256.9 4309.22 7844.34 3553.64 7982 2901.85c20.78-98.46-4.06-176.53-73.8-231.99-169.83-135.15-559.33-103.68-947.18 76.48L4600.7 3842.57c-246.41 114.44-503.31 173.17-704.57 161.11l-2739.49-163.87zm982.41 2740.98c-415.11 0-785.28-63.96-1082.74-199-363.57-165.07-592.81-429.33-663.05-764.22-107.74-514 155.58-1156.69 741.4-1809.65l6.07-6.74 2757.66 164.93c195.3 11.75 445.53-45.76 686.47-157.66L6945.15 2712.2c400.29-185.92 805.92-215.45 986.47-71.8 80.68 64.18 110.81 157.27 87.17 269.21-139.49 660.61-732.12 1424.3-1625.95 2095.32-1309.29 982.84-2989.68 1575.83-4253.79 1575.86z" style="fill:url(#k);fill-rule:nonzero"/><path d="M1204.37 3538.22C570.82 4185.15 259.56 4846.78 327.65 5402.2c42.93 350.13 241.4 642.9 573.93 846.77 1140.18 698.85 3561.01 257.24 5396.68-984.46 941.46-636.84 1592.72-1399.65 1786.75-2092.86 31.15-111.3 8.01-205.88-66.89-273.54-167.36-151.06-543.49-148.73-936.06 5.78L4635.2 3867.37c-255.65 100.64-516.89 139.91-716.63 107.77l-2714.2-436.92zm1132.7 3078.98c-577.25.03-1083.24-108.2-1455.14-336.16-342.65-210.05-547.26-512.38-591.64-874.26-69.75-568.99 247.75-1244.42 894.04-1901.82l6.81-6.95 2733.43 439.98c193.29 31.12 447.32-7.37 696.84-105.65L7068.3 2868.9c405.45-159.67 797.35-159.1 975.04 1.3 86.22 77.83 113.18 185.6 77.9 311.58-196.39 701.64-853.16 1472.14-1801.92 2113.91-1250.2 845.68-2772.33 1321.44-3982.25 1321.51z" style="fill:url(#l);fill-rule:nonzero"/><path d="M1278.14 3216.28C588.45 3858.86 220.61 4548.05 242.17 5157.83c13.47 381.98 185.81 716.77 498.37 968.27 1074.56 864.51 3524.21 615.66 5460.74-554.71 993.53-600.5 1708.96-1365.04 1962.79-2097.69 43.88-126.61 24.16-237.42-57.05-320.43-161.39-164.99-530.37-192.01-918.17-67.2l-2521.51 811.39c-263.7 84.88-527.65 102.66-724.07 48.86l-2665.13-730.04zm1303.54 3461.56c-763.51.04-1426.56-169.9-1864.71-522.43-321.34-258.51-498.54-603.04-512.41-996.28-21.98-623.07 352.92-1325.42 1055.65-1977.53l7.66-7.12 2685.31 735.54c189.65 51.96 445.73 34.32 702.63-48.37l2521.54-811.42c407.31-131.06 782.77-100.93 956.59 76.76 91.79 93.88 114.54 218.05 65.69 359.02-256.69 740.8-977.98 1512.61-1978.91 2117.55-1162.5 702.63-2510.36 1074.21-3639.04 1074.28z" style="fill:url(#m);fill-rule:nonzero"/><path d="M1379.59 2874.72C639.57 3502.7 213.17 4211.85 178.49 4872.61c-21.94 418.78 120.62 800.94 412.29 1105.14 994.94 1037.73 3456.45 1000.34 5487.17-83.32C7120.16 5338.31 7899.59 4578 8216.45 3808.42c58.81-142.77 43.75-271.78-43.53-373-156.81-181.85-507.51-237.63-893.59-141.99l-2582.64 639.73-4.55-18.27 4.55 18.27c-270.44 66.96-535.2 61.24-726.44-15.77L1379.59 2874.72zm1483.33 3894.07c-969.26 0-1809.36-253.97-2299.27-764.97-299.08-311.92-445.24-703.79-422.69-1133.19 35.34-673.77 469.65-1395.41 1222.97-2031.96l8.68-7.31L3984.29 3882.5c184.12 74.12 440.48 79.27 703.34 14.15l2582.64-639.77c399.69-98.95 765.14-38.55 931.15 153.99 95.75 111.06 113.46 257.35 49.82 411.87-320.11 777.52-1105.82 1544.71-2155.55 2104.88-1048.62 559.58-2212.29 841.17-3232.77 841.17z" style="fill:url(#n);fill-rule:nonzero"/><path d="M1510.33 2514.53C180.86 3538.65-243.61 4858.99 454.43 5802.85c432.47 584.8 1241.96 952.14 2279.37 1034.34 1039.78 82.48 2173.78-132.33 3193.2-604.63 1086.76-503.48 1929.62-1253.1 2312.42-2056.58 76.02-159.6 67.2-308.79-25.54-431.42-148.56-196.46-487.22-282.01-862.61-218.01l-2628.61 448.06-3.14-18.56 3.14 18.56c-275.52 46.96-539.05 15.59-723.09-86.01L1510.33 2514.53zm1653.58 4380.9c-1187.1 0-2219.11-366.21-2739.71-1070.18-712.89-963.97-281.69-2309.43 1072.97-3348.08l9.78-7.47 2510.79 1385.95c176.77 97.58 431.37 127.39 698.6 81.85l2628.61-448.03c395.08-67.38 739.56 21.66 898.91 232.38 100.33 132.64 110.81 299.68 29.5 470.32-386.51 811.28-1235.96 1567.43-2330.52 2074.54-913.27 423.09-1889.65 628.69-2778.93 628.72z" style="fill:url(#o);fill-rule:nonzero"/><path d="M1671.84 2136.92C257.69 3120.54-280.05 4511.04 333.71 5600.39c379.95 674.33 1154.33 1148.85 2180.45 1336.14 1028.46 187.72 2176.54 62.62 3233.02-352.14C6873.67 6142.15 7778.69 5410.2 8230.21 4576.2c94.26-174.09 93.49-350.09-2.12-495.51-141.07-214.59-457.44-327.59-825.6-294.89l-2657.61 236.15c-278.87 24.8-538.97-34.18-713.63-161.75L1671.84 2136.92zm1791.89 4924.81c-1408.11 0-2639.06-513.32-3162.79-1442.89-625.4-1110.02-78.7-2524.76 1360.45-3520.44l11.01-7.62 2381.07 1739.05c167.4 122.24 418.12 178.65 688.06 154.62l1.66 18.77-1.66-18.77 2657.61-236.11c381.91-33.94 711.69 85.48 860.39 311.68 103.57 157.55 104.91 347.24 3.74 534.1-455.65 841.66-1367.72 1579.85-2502.33 2025.3-763.19 299.61-1554.82 442.28-2297.21 442.31z" style="fill:url(#p);fill-rule:nonzero"/><path d="M1865.51 1743.4C370.86 2674.98-285.94 4130.64 231.02 5369.42c319.86 766.52 1050.01 1353.89 2055.85 1653.9 1007.81 300.53 2162.17 273.93 3250.6-75.04 1160.63-372.11 2126.04-1079.04 2648.61-1939.47 115.78-190.64 125.66-391.23 27.8-564.83-129.58-229.9-428.8-372.57-781.16-372.57h-1.94l-2668.08 3.92h-1.94c-279.47 0-532.84-88.48-695.43-242.85L1865.51 1743.4zm1887.4 5525.06c-509.63 0-1008.81-69.53-1476.8-209.13-1016.88-303.28-1755.49-898.27-2079.84-1675.41-525.74-1259.87 142.07-2738.82 1661.76-3680.21l12.31-7.62 2220.92 2109.08c155.99 148.17 400.29 231.21 671.4 232.55v18.81-18.81l2668.05-3.95h1.98c365.97 0 677.75 150 813.96 391.73 104.85 185.94 94.76 400.05-28.43 602.86-527.19 868.04-1500.12 1580.9-2669.29 1955.76-590.41 189.27-1200.32 284.34-1796.02 284.34z" style="fill:url(#q);fill-rule:nonzero"/><path d="M2092.7 1335.59C522.49 2203.14-258.6 3718 148.72 5109.36c251.99 860.77 928.26 1566.22 1904.26 1986.42 977.54 420.83 2129.65 501.33 3243.89 226.66 1188.57-292.99 2211.88-967.04 2807.51-1849.3 139.27-206.3 162.48-433 65.29-638.39-118.56-250.68-393.63-419.45-735.71-451.41l-2658.32-248.5c-279.4-26.14-525.03-146.08-673.87-329.1L2092.7 1335.59zM3989.02 7520.2c-683.26 0-1349.8-131.09-1950.9-389.89-986.5-424.67-1670.33-1138.66-1925.53-2010.41-413.56-1412.77 380.4-2949.85 1975.73-3824.85l13.76-7.55 2028.86 2494.49c142.53 175.23 378.78 290.2 648.23 315.39l2658.28 248.49c355.46 33.24 641.91 209.98 766.23 472.8 101.6 214.7 76.77 460.94-68.12 675.5-600.78 889.95-1632.16 1569.61-2829.66 1864.78-437.37 107.81-880.53 161.25-1316.88 161.25z" style="fill:url(#r);fill-rule:nonzero"/><path d="M2354.46 915.46C714.47 1706.53-195.35 3273.5 89.31 4819.62c176.14 956.52 788.53 1784.91 1724.41 2332.5 936.91 548.14 2077.19 744.39 3210.99 552.62 1209.38-204.61 2287.47-837.53 2957.78-1736.51 161.85-217.1 202.42-477.52 111.27-714.52-103.4-268.92-359.1-467.92-683.97-532.34l-2626.53-520.95c-276.19-54.75-510.46-207.85-642.79-420.01L2354.46 915.46zM4176.38 7814c-849.56.03-1673.19-214.92-2381.64-629.43C849.26 6631.42 230.46 5793.92 52.34 4826.43-236.34 3258.61 688.36 1670.41 2353.4 874.19l15.17-7.06 1803.86 2893.38c126.79 203.34 352.11 350.24 618.14 403.01l2626.52 520.95c337.61 66.96 603.71 274.71 711.8 555.77 95.89 249.27 53.48 522.81-116.24 750.46-676.03 906.67-1762.83 1544.92-2981.66 1751.12-285.54 48.33-571.54 72.18-854.61 72.18z" style="fill:url(#s);fill-rule:nonzero"/><path d="M2651.78 485.43C949.35 1187.1-93.54 2798.06 55.37 4499.93c92.15 1053.18 630.24 2008.72 1515.18 2690.53 885.37 682.2 2004.2 1002.74 3149.85 902.44 1222.36-106.92 2351.36-690.14 3097.48-1600.09 187.26-228.39 247.94-516.61 166.48-790.79-85.94-289.1-320.82-519.75-628.26-616.94l-2571.14-812.9c-270.44-85.51-490.4-273.33-603.53-515.3L2651.78 485.43zm1657.14 7663.11c-1008.06 0-1975.7-322.94-2761.33-928.27C654.21 6531.93 110.97 5567.01 17.87 4503.21-132.94 2779.29 926.49 1147.94 2654.14 443.8l16.59-6.7 7.58 16.22L4215.5 3740.93c108.69 232.48 320.4 413.03 580.82 495.37l2571.14 812.91c319.37 100.96 563.45 341.03 652.95 642.09 85.09 286.35 21.88 587.2-173.42 825.39-752.48 917.72-1890.89 1505.9-3123.31 1613.71-138.78 12.14-277.14 18.14-414.76 18.14z" style="fill:url(#t);fill-rule:nonzero"/><path d="M2985.54 47.63C1228.5 646.29 49.37 2292.64 49.37 4150.29c0 1149.88 452.97 2236.16 1275.47 3058.66 822.54 822.5 1908.78 1275.47 3058.66 1275.47 1226.78 0 2402.12-524.55 3224.62-1439.09 212.59-236.36 296.76-551.29 231-864.06-66.57-316.69-273.72-574.57-568.29-707.5L4780.34 4350c-261.87-118.18-464.54-342.16-556.02-614.47L2985.54 47.63zM4383.5 8522.02c-1159.94 0-2255.63-456.88-3085.22-1286.47C468.65 6405.95 11.77 5310.23 11.77 4150.29 11.77 2270.24 1209.17 604.67 2991.37 6l17.81-6 1250.81 3723.54c88.16 262.43 283.46 478.29 535.83 592.17l2490.5 1123.77c305.65 137.91 520.56 405.49 589.63 734.06 68.26 324.63-19.19 651.55-239.85 896.94-829.63 922.48-2015.16 1451.54-3252.6 1451.54z" style="fill:url(#u);fill-rule:nonzero"/></svg>