<svg xmlns="http://www.w3.org/2000/svg" width="44" height="41" fill="none"><path fill-rule="evenodd" clip-rule="evenodd" d="M31.195 5.378c-1.788 1.874-2.029 4.948-.903 7.01l5.204 8.761c1.573-3.088 4.786-9.09 4.745-11.928-.068-4.81-5.728-7.32-9.046-3.843ZM34.921 0c-7.5-.002-11.127 8.491-7.91 14.248l8.506 14.32c.122.202 6.205-12.439 7.357-14.75C46.228 7.339 41.65-.016 34.921 0Zm-4.296 36.435c-3.395 5.951-11.852 6.142-15.515.228L1.507 14.71C-3.887 6.048 6.322-3.932 14.443 1.956a9.29 9.29 0 0 1 2.46 2.663l10.623 17.15 5.911 9.244c.015.028-2.733 5.422-2.812 5.422Zm-6.299-12.687L13.043 5.718c-4.036-4.368-11.025.266-8.83 6.005L18.31 34.684a5.487 5.487 0 0 0 1.381 1.497v.015c2.485 1.86 6.067 1.155 7.66-1.637.393-.687 1.788-3.105 1.864-3.152l-4.889-7.659Z" fill="#fff"/></svg>